<?xml version="1.0" standalone="no"?>
<!DOCTYPE svg PUBLIC "-//W3C//DTD SVG 1.1//EN" "http://www.w3.org/Graphics/SVG/1.1/DTD/svg11.dtd" >
<svg xmlns="http://www.w3.org/2000/svg">
<metadata>
This is a custom SVG webfont generated by Font Squirrel.
Copyright   : Beynkales Demo v 10   Copyright 2005 David Nalle   Scirptorium Fonts  httpwwwfontcraftcom
</metadata>
<defs>
<font id="webfonttz4IM6kc" horiz-adv-x="1000" >
<font-face units-per-em="1000" ascent="800" descent="-200" />
<missing-glyph horiz-adv-x="500" />
<glyph unicode=" " />
<glyph unicode="!" />
<glyph unicode="&#x22;" />
<glyph unicode="#" />
<glyph unicode="$" />
<glyph unicode="%" />
<glyph unicode="&#x26;" />
<glyph unicode="'" />
<glyph unicode="(" />
<glyph unicode=")" />
<glyph unicode="*" />
<glyph unicode="+" />
<glyph unicode="," />
<glyph unicode="-" />
<glyph unicode="." />
<glyph unicode="/" />
<glyph unicode="0" />
<glyph unicode="1" />
<glyph unicode="2" />
<glyph unicode="3" />
<glyph unicode="4" />
<glyph unicode="5" />
<glyph unicode="6" />
<glyph unicode="7" />
<glyph unicode="8" />
<glyph unicode="9" />
<glyph unicode=":" />
<glyph unicode=";" />
<glyph unicode="&#x3c;" />
<glyph unicode="=" />
<glyph unicode="&#x3e;" />
<glyph unicode="?" />
<glyph unicode="@" horiz-adv-x="481" d="M431.5 315.5q1.5 -16.5 1.5 -26.5q0 -47 -27 -67l-31 -15q-11 -7 -21 -35q-11 -10 -11 -22.5t-4 -17.5q-8 -12 -39 -44q-2 0 0 23q3 31 3 39q0 14 -4 14q1 34 -3 56q1 -6 1 18l-3 4q-7 -14 -24 -34q-45 -35 -75 -35q-2 0 -12 17t-12 17t-1.5 -1t-1.5 -1q-9 0 -9 23 q0 -4 16 54q0 4 -2 6q10 16 13 16q1 0 1 -1.5t2 -1.5q11 17 26 38q7 0 16 8q2 5 3 10q6 6 7 9q1 2 0 6q-1 6 -1 11l1 2q11 7 33 24q-8 32 -8 33q-5 18 -14 29h-7q-18 0 -29 -13q-1 -10 -5 -31q3 -5 13 -6q0 -1 -5 -18h-6q-8 0 -26 17q-5 0 -7 2v11q9 3 14 14t9 22 q4 7 19.5 17.5t22.5 10.5q15 0 34 -16l18 -33q2 -4 7 -37q6 -9 6 -22q0 -5 7.5 -20.5t7.5 -30.5q0 -6 2 -17.5t2 -17.5t-2.5 -18.5t-2.5 -18.5l9 -60q0 -2 9.5 7t9.5 7q9 12 20 37q7 27 7 124q0 16 -2 28q-17 24 -44 118q-23 83 -44 98q-1 16 -4 48q-3 6 -7 6t-16 -10.5 t-19 -9.5q-2 -2 -6 -7v-19q-21 -8 -42 -17t-33 -28q-2 -18 -14 -66q-10 -41 -10 -68q0 -14 2 -25l-16 -15q0 -6 -2 -19t-2 -20q0 -102 19 -193l-5 -24q0 -3 1 -7q18 -33 56 -94q9 -12 18 -13t14 -7q9 -12 24 -54q7 2 46 31q5 -3 15 -10q12 0 20 14q-4 6 -5 13q12 18 39 51 q3 -48 3 -37l-2 -8q-2 -3 -6 -8q-3 -27 -19 -45t-36 -18q-7 0 -23 5l-70 -32l-50 63q5 11 5 22q-11 15 -31 30.5t-26 25.5q-10 17 -11 48q-1 -2 -1.5 18.5t-3 20.5t-42.5 31q-2 158 21 267q10 9 21 64q14 63 19 76q64 142 114 142q2 0 21.5 14t24.5 11q7 -3 25 -29 q7 -10 25.5 -26.5t25.5 -27.5q14 -36 40 -87q34 -41 34 -63q0 -7 -2 -31q0 12 -8 35q-5 -9 -7 -32.5t-5 -27.5q1 -8 18 -78q14 -62 14 -67.5t1.5 -22zM285 258q0 6 -5 16.5t-9 10.5t-11 -10q3 -4 8 -12q-5 -19 -25 -19q-4 0 -5 3t-2.5 8t-1.5 8q0 23 19 36l32 16v21 q0 9 -7.5 20t-13.5 11q-5 0 -8 -8q-5 -11 -6 -12q-8 -7 -24 -23q-1 -3 -5 -20.5t-4 -20.5q0 -2 4 -13q-15 -10 -15 -30q0 -4 10 -25q22 -10 19 -10q9 0 29.5 20.5t20.5 32.5z" />
<glyph unicode="A" horiz-adv-x="423" d="M86 79q-2 5 -5 16q0 5 6.5 22.5t6.5 26.5q-26 32 -60 89v3q-1 11 3 18q-4 4 -13 14q-11 19 -12 74q-1 57 15.5 81.5t53.5 25.5q11 0 24 4.5t23 4.5q4 0 23 4q22 63 32 113q1 11 6 48q-7 22 -12 49l-2 44q-1 0 -22 24q4 3 19 2q22 -2 20 -2q4 0 18.5 3t17.5 3t39 19 q5 2 27 4q16 2 24 15l12 1q2 -3 -5 -14.5t-7.5 -14l-0.5 -2.5q-3 -4 -1.5 -11.5t-0.5 -13.5q3 -15 6 -63q0 -12 2 -27t2 -26q0 -32 5 -86l17 -26q1 -14 4 -40q8 -9 16 -39q-2 -15 -3 -45q0 -20 9.5 -45l9.5 -25q0 -6 -6 -31q-8 -28 -9 -34q5 -8 13 -6l6 -83q5 0 9 17 q1 -11 1 -29q1 -34 -1 -70q-4 -8 -4 -12q3 -9 6 -30l6 -116q-7 0 -14.5 27t-15.5 27q-4 0 -6.5 34t-6.5 34l-18 63q-5 18 -12 51q1 15 2 45q0 18 -7 43q-9 36 -10 42q-13 19 -40 55q-3 11 -13 31q-3 5 -30 22q-20 13 -21 33q-1 2 -3 3l-5 -1q-12 -1 -36 -113 q-23 -107 -23 -136q0 -20 15 -39t28 -18q10 9 28 19q5 -2 15 -3q6 27 19 81q-10 33 -25 47l-4 -8q-7 10 -22 29l-7 -7l1 -15q8 -9 12 -41q-10 10 -19 20q-11 14 -12 29q0 34 26 34q12 1 34 -16l33 -26q20 -59 20 -72q0 -5 -7 -21.5t-7 -22.5q-11 -16 -37 -33t-41 -18 q-8 0 -25 3.5t-26 3.5q-3 0 -5 -7q0 -11 -10 -30t-10 -30l-50 -45q-18 -12 -42 -14q0 -1 -2 -1l20 31.5l20 30.5q16 3 21 45zM302 379q4 12 4 57q-7 22 -16 62q-14 148 -24 190q-1 5 -5 5q-7 0 -20.5 -11t-14.5 -10q-5 -20 -5 -56q1 -40 -2 -57q-4 -33 -14 -100l9 -10h11 q10 0 15 -4t31 -49.5t29 -55.5zM148 444q-55 -6 -77 -38q-23 -35 -22 -121q-1 -10 2 -27q4 -11 25 -41.5t26 -29.5q12 40 31 121q4 45 15 136z" />
<glyph unicode="B" horiz-adv-x="292" d="M291 240q-5 -7 -12 -15l1 -2h-2v-8v-1q4 -11 0 -20q-2 -7 -12.5 -24.5t-12.5 -17.5l-1 -4l-1 1l1 -2q0 -9 -9 -9l1 -2q-4 -2 -8 -5q1 0 3 -1l-8 -7l1 -2l-2 1l-1 -4l-4 -6h-2l1 -1l-2 1v-2q-24 -29 -24 -30l-1 1q-7 -11 -8 -10q-11 -13 -11 -14l-2 1v-1l-5 -6 q-1 -1 -9 -10.5t-12 -9.5q1 0 -6 -5v-2q0 -3 -6 -3v-2l-1 1v-1q-14 -13 -42 -35q-4 -7 -4 -4l-4 -9q0 -1 -0.5 -3.5t-6 -7t-9 -4.5t-9.5 -11l-4 -2l1 -1q-18 -11 -15 -11q-1 0 -7 -5t-6 -7q0 -3 9 -3q1 -1 1 -6t-15 -5q-1 0 -1 -1v1l-3 1l-14 10q-3 5 -2 12q1 2 1 5l-3 14 q3 5 16 23q8 10 8 23t7 53.5t7 58.5l2 1l-5 11q2 1 -1.5 6t-3.5 6l-2 4v12q0 6 13 106l1 5v9q0 20 1 46.5t1 41.5q0 6 -8.5 13.5t-8.5 10.5l2 1q-1 13 2 22l1 17q3 6 2 5l7 45h-2q0 1 -1 3q-7 6 -20 6l-15 12q1 -1 16 4q5 -6 21 -6q1 0 1 2q0 1 -1 2l-6 16q10 29 10 41 q0 13 -8 32v2q15 27 15 44l-3 34h1q-8 67 -8 57q0 7 -9 7v1l-6 7q0 24 -3.5 24t-3.5 7l-2 -1l-7 8q-4 6 -4 16q0 9 3 9q2 0 15 -7t17 -7q19 -10 22 -10q12 0 72 -29q6 0 43 -33t43 -43v-4q0 -32 -14 -32q-3 0 -4 -5q-3 -8 -3 -9l1 -1l-6 -35l-1 -3h1q-14 -15 -20 -15 q-12 -9 -14.5 -9t-13.5 -7.5t-14 -7.5q-8 0 -19.5 -12t-19.5 -12l-2 -3q-1 -1 -2 1v-2q-13 -14 -13 -19l1 2l1 -5l1 1l1 -3v-4l2 1q1 0 11 -8q6 -5 6 -10q1 -1 4 -1l9 -5q18 -13 21 -13l7.5 -5t10.5 -5q7 0 33 -24l13 -12l1 1q22 -26 39 -36q13 -8 17 -17q8 -14 27 -72 q-2 -1 0 -4t4 -14l1 -2v-15zM242 270q0 15 -4 34l1 2v4h-2l-1 10l-2 -1q-1 3 -7 11t-5 13l-9 11l1 1l-2 -1q-20 19 -24 19l-10 10q-2 0 -3 1h-3q-4 4 -10 9l-2 -1q-8 8 -14 8l-1 2q-3 3 -9 5h-2q-5 0 -21 18q-6 6 -14 13q-1 0 -4 3h-4v2q-6 1 -11 4q0 -2 -4 0q-3 1 -4 4 l-4 -41h1q-2 -6 -2 -26l10 -12l2 1l-1 -2l8 -8l1 -6q0 -5 -2 -16.5t-2 -15.5l1 1l-2 -27l1 -1l-1 -2h1q0 -19 2 -57v0q3 -6 2 -21l2 -2q-2 -20 -7 -58l1 -2l-2 -4h1v-2v-6q-1 -8 0.5 -16.5t7.5 -39.5h1l3 -11l5 3q0 2 11.5 12t12.5 11q6 1 10 9l1 -1q21 25 58 56l-1 2h2 q6 7 28 39q21 28 21 62zM164 633q-1 4 -7 18q-4 9 -4 16t-11 7l-8 7q-19 10 -19 12l-40 12q-11 -91 -6 -155q1 -9 -2.5 -22.5t-3.5 -21.5q0 -12 5 -12q-1 0 15 22t21 22q2 0 14.5 13t15.5 13q11 0 21 34q4 17 9 35z" />
<glyph unicode="C" horiz-adv-x="316" d="M282 1q-3 0 -2 -3q0 -37 -13 -39l-4 -24q-7 -5 -8 -5q-19 0 -52.5 -20t-52.5 -20q-3 0 -16 13t-17 13t-13 14q0 6 -11 18l-2 6v0q-10 17 -15 17l-6 5q0 11 -13 29.5t-15 28.5h1l-3 16l-1 9l-1 2v31q-20 1 -20 39q0 25 23 100l3 6q0 37 4 49q13 41 13 60q0 12 -9.5 29 t-9.5 42q0 12 30 105l2 5l5 17q1 5 5.5 18t4.5 21l-8 3l-2 61q-3 102 -14 102l-5 30q0 15 18 15q16 0 54 -12t59 -12l6 -1l2 -2l28 -26q6 -7 6 -24l4 -8l12 -22v1q14 -32 35 -58v-20l-8 -35q-26 -11 -26 -67q0 -13 -7 -15t-15 -4l-14 -3q0 -3 -14 -3l-1 -1l-16 26l-15 28 l10 46l5 51q0 1 7 1q21 0 32 -10q5 -6 16 -31l-9 -44l-4 -4q-31 0 -31 14q0 30 14 30l3 -4q-2 -26 6 -26l8 33q0 29 -24 29l-4 -1l-7 -33l-1 -4l-3 -12l-7 -33q0 -3 8.5 -11t11.5 -8q4 0 12 4t10 4h4q3 10 10 27l2 5l7 27l4 10l4 25q0 26 -6 26q-1 0 -3 8q-7 25 -8 25l2 2 l-2 2q-1 0 -10 11q-8 7 -8 12l-3 4q-10 0 -50.5 13.5t-57.5 13.5q-16 0 -16 -7l1 1l10 -43l4 -25l2 -11q-1 -21 6 -61.5t7 -37.5q0 2 -10 -40l-1 -5l-2 -10l-5 -17q-1 -6 -13 -51q-9 -35 -9 -51q0 -2 5 -26.5t4 -25.5l8 -41q3 -1 2 -20q0 -19 -3 -25l-3 -9l-5 -35l-1 -18 q0 -21 -5 -48v-11q3 -7 24 -50q20 -39 20 -44q0 -27 26.5 -52t51.5 -25q9 0 23 12t14 25q0 20 21 50q23 34 26 50q8 43 15 43q3 0 3 -9q0 -24 -24 -120zM152 -30l-1 1l-1 -1l1 -1z" />
<glyph unicode="D" horiz-adv-x="329" d="M307 253v-15q-21 -23 -40 -57q-25 -43 -20 -62q-5 -9 -8 -9l1 -2l-2 2v-2l-24 -30l-1 1l-60 -56q-50 -47 -51 -57l-24 -1l-18 -36q-10 0 -20.5 -9l-10.5 -9q-7 0 -7 10q0 13 18 82.5t18 99.5l1 1l-11 39q0 19 7 56t7 55q0 134 -20 215l-1 2q1 10 14 83q12 68 12 79l-3 34 l1 -1q-4 19 -8 58l-9 7v1l-6 7l-4 24l-3 6h-2l-7 8l-4 16l3 9q158 -68 223 -164t65 -265q0 -26 -5.5 -51.5t-4.5 -53.5q0 -13 4 -15zM274 334q0 96 -22 170q-3 10 -12 20l-20 15l-31 75q-12 7 -49 53q-34 42 -53 46q-4 -39 -4 -84q0 -28 3.5 -85.5t3.5 -86.5q0 -91 8 -135 l1 1l-2 -27l1 -1l-1 -1v0q1 -19 2 -57h1l2 -22l1 -2q-1 -19 -6 -58q1 0 -1 -6h1v-2v-6l1 -16q1 -8 7 -39l1 -1l3 -10l39 35l1 -2q21 25 58 57l-1 1q0 -6 24 32.5t24 77.5q0 28 20 58z" />
<glyph unicode="E" horiz-adv-x="413" d="M407 65q-1 0 -4 -33q-2 -21 9 -60l-1 -8q-6 -3 -29 1q-5 0 -15 5q-3 3 -8 9q-14 14 -15 -4q-5 1 -21 10l-20 10q-10 5 -13 5q-5 0 -22.5 -4t-22.5 -4q4 0 -13 1q-9 1 -14 -3q-8 -5 -44 -5q-16 0 -28 7.5t-54 9.5q-9 1 -14 -2q-15 0 -65 -14q3 4 55 40q11 8 15 12.5 t5 22.5q0 8 5 19q11 27 9 70q0 8 -2 36q-2 23 -2 37q0 31 -3 111q-4 15 -11 47q-1 17 -5 59q-2 3 -8 9q-10 0 -22.5 -9.5t-14.5 -9.5q-3 0 -15 86q-2 11 -3 16q41 -13 64 -16q13 61 13 82q0 107 -35 107q-10 0 -21 -4q-6 10 -6 19t13 41q23 -8 34 -8q5 0 11 5t8 5q4 0 13 -5 t15 -5q7 0 20 7t18 7q4 0 12.5 -4.5t13.5 -4.5q16 0 44.5 14t43.5 14q9 0 27 -15q-1 -10 -9 -55q-6 -34 -6 -56q0 -9 -1 -11l-1 -1q-1 -3 0 -13q-3 -14 -11 -17q-1 23 -11 79q-5 21 -30 22q-66 2 -87.5 -23.5t-21.5 -95.5q0 -95 70 -95q7 0 27 -9.5t28 -9.5q15 -7 24 -43 q9 -32 7 -33q-4 -13 -7 -26q-12 -27 -30 -31q-8 -2 -15 -2q-48 0 -63 35q-4 9 -4 16q0 25 49 39q-4 -4 -8 -7q-11 -13 -11 -24q0 -6 7 -18.5t12 -12.5q2 0 3 1q14 4 33 18q3 7 3 17q0 30 -9 35q-37 23 -47 23q-4 0 -14.5 -4.5t-14.5 -4.5q-2 2 -6 7q-23 -2 -30 -24 q-4 -13 -4 -48q0 -60 7 -95q9 -47 9 -75q0 -12 2 -25.5t2 -25t10 -76.5q2 -10 11 -18l3 -3q-1 -8 -6 -25q7 -19 24 -21q-9 1 26 1q-6 0 71 -7q63 -6 75 1q3 14 9 20l2 1l1 1q6 15 18 38l12 20h9q2 -37 -1 -53q-1 -8 -3 -18q2 -7 5 -1v23v2v2q-2 4 -6 0h1z" />
<glyph unicode="F" horiz-adv-x="324" d="M131 516l-3 38q-1 23 0 45l7 28q3 28 5 57q3 35 19 35q80 0 112 24q9 -14 9 -52q0 -20 10 -42q4 0 13 -14.5t9 -9.5q0 9 -4.5 27.5t-4.5 29.5q0 8 3 23.5t3 23.5l-2 53l-7 1q-37 1 -116 -9q-5 -1 -17 -4.5t-19 -3.5q-26 -7 -47 -7q-11 0 -64 9l30 -49q14 -13 19 -37 q5 -27 6 -82q0 -60 -8 -71q-6 5 -29.5 11.5t-32.5 6.5q-6 0 -9 -2q0 -3 2 -24t2 -25q0 -28 20 -27l5 1l6 -8q6 1 18.5 6.5t19.5 5.5q5 0 9 -5q3 -87 3 -77q0 -26 -4 -51q-1 -46 -3 -106q-2 -47 -2 -64q0 -22 -4.5 -50t-4.5 -50q0 -4 -3.5 -34.5t-2.5 -36.5q-1 -2 29 -13.5 t28 -13.5q5 -1 18.5 -9.5t17 -8.5t10.5 -7t9 -7t3 1l-33 77q-2 38 -12 124q-8 44 -8 87q0 9 -1.5 22t-2.5 18q-1 14 -1 180v23q2 4 5 4q1 0 5.5 -2.5t7.5 -2.5q11 5 24 10q29 8 26 8q9 0 46 -23q9 -5 9 -35q0 -10 -2.5 -16.5t-16.5 -11t-16 -6.5t-4 -2q-4 0 -11.5 12.5 t-7.5 18.5q0 11 11 24q4 3 8 7q-49 -14 -49 -39q0 -7 4 -16q15 -35 63 -35q8 0 15 2q18 4 30 31q4 13 7 26q2 1 -6 33q-9 36 -25 43q-7 0 -27.5 9.5t-27.5 9.5q-2 0 -25.5 -4t-33.5 -4q-7 0 -9 2z" />
<glyph unicode="G" horiz-adv-x="416" d="M399 242q-22 -73 -22 -72q0 -92 10 -100q-11 -43 -11 -47q0 -17 21 -60v-10q-29 -23 -35 -23q-4 0 -13 5t-14 5q-3 0 -8.5 -5t-8.5 -5q-4 0 -14.5 7t-15.5 7q-4 0 -18 -14l-98 41q-14 -2 -58 76q-38 66 -50 97q-17 45 -25 94q-6 37 -13 73q-8 43 -8 75q0 35 6 77 q20 138 50.5 190t120.5 106q3 0 9.5 1.5t10.5 1.5q3 0 8.5 -2.5t8.5 -2.5q14 0 43 13.5t43 13.5q11 0 30 -16q-1 -11 -9 -56q-6 -33 -6 -56q0 -29 5 -58q-1 -2 -1 -3q-1 0 -5.5 15t-8.5 15l-19 67q-4 15 -16 18q-5 2 -25 2h-5q-7 0 -30 -22q-106 -99 -133 -224 q-12 -57 -12 -115q0 -100 47 -215q59 -143 145 -143q29 0 63 22q-8 9 -16 29q11 32 13 43v51l-1 46q-20 17 -64 62l-28 41q4 1 38.5 -2t33.5 -3t76 -6z" />
<glyph unicode="H" horiz-adv-x="502" d="M308 -37l-6 37q0 1 1 23q0 5 1 7q-1 20 1 36h-8q-15 -1 -44 12q-34 15 -34 33q0 3 3 7.5t3 7.5q0 4 -10.5 12t-12.5 13q-5 18 -5 43q0 62 53 147q5 9 19 17t19 15l2 -4q-17 -31 -51 -88q-12 -46 -12 -60q0 -40 26 -68t53 -26h11q1 16 1 25q0 5 -3 15.5t-3 15.5 q-7 87 -7 146q0 20 4.5 45.5t4.5 33.5l13 15q-12 29 -20 35v31v11q-14 -5 -27 -21q-23 -28 -25 -30l-2 1q-29 2 -62 -41l-51 -69l1 -14q0 -60 -7 -147l-3.5 -14.5t-2.5 -15.5q0 -41 -16 -225l-26 -62l4 118q-9 50 -9 90q0 19 2 32.5t2 124.5q0 5 1.5 14t1.5 13q0 -8 0 54 q0 11 3.5 33.5t3.5 34.5l-1 10q-24 34 -21 80v11q7 13 7 26t-3.5 36t-4.5 33q3 8 13 27q-3 8 -18 16t-15 11q0 8 5 17q-12 44 -46 119q22 -9 57 -9q2 0 6 -3.5t6 -3.5q4 0 15.5 9t15.5 9q7 0 18 -10.5t18 -10.5q6 0 17.5 5.5t16.5 5.5q-44 -88 -44 -107v-91q1 -63 1 -91 l-6 6l7 -109q63 121 168 177l1 203q0 39 -36 91q27 0 52.5 3.5t39.5 3.5q3 0 6.5 4t6.5 4q5 0 14.5 -2t14.5 -2q6 0 17 4t16 4q-12 -14 -30 -52l1 -14q1 -6 1 -12v0q-4 0 -12.5 -17t-10.5 -19q2 -70 2 -77t-10 -50.5t-13 -52.5v-2q124 2 124 -199q0 -41 -5 -89 q-9 -72 -25 -72q-4 0 -8 -6q-31 -51 -36 -58q-18 -24 -43 -41q0 1 -2 -48q-1 -34 5 -43q3 -5 -33 -24l-33 -62zM465 323q0 41 -20.5 97.5t-43.5 64.5q-11 6 -35 17q-1 -7 -1 -47q0 -46 -13 -66l-1 -9q4 -23 7 -69q0 -5 -1 -16v-16q0 -11 1.5 -32t1.5 -33t5 -33l7 -34 q38 21 69 55q24 55 24 121z" />
<glyph unicode="I" horiz-adv-x="205" d="M84 -43l-25 92q-3 9 -3 17q0 15 9 44t9 46q0 4 -3 14.5t-3 15.5q-8 89 -8 147q0 19 5 45t5 34v65l-7 -5q0 8 1 25.5t1 26.5v129q0 38 -24 38l-12 22q-18 25 -18 29q0 1 1 1q20 0 48.5 -1.5t47.5 -1.5q2 0 14 9.5t14 9.5q35 0 58 11l-16 -41q-17 -43 -19 -43v0 q-4 0 -6 -17t-5 -20q5 -9 5 -17q0 -3 -12 -17.5t-13 -19.5q1 -9 4 -17q0 -10 -4 -32.5t-4 -35.5q0 -14 7 -27v-10q3 -47 -22 -81l-1 -9q4 -23 8 -68q-1 -5 -1.5 -16.5t-0.5 -16.5q0 -11 2 -31.5t2 -33t4 -31.5q6 -27 7 -32q3 -19 -10 -89q-15 -76 -15 -104q0 -25 7 -37z" />
<glyph unicode="J" horiz-adv-x="330" d="M276 669q5 -39 12 -88q0 -10 -4 -35q-4 -21 -4 -34q0 6 8 -55q-4 -18 -7 -35q-3 -11 -15 -28v-9q3 -23 6 -69q0 -14 1 -37v-38q0 -27 -10 -88q-10 -66 -19 -81l-45 -79q-34 -51 -64 -51q-25 0 -56 30q-2 -1 -4 -1q-16 0 -43 53.5t-27 80.5q0 7 5 12t6 11q12 83 18 103 q11 36 46 78q26 31 56 31q28 0 49 -25t21 -66q0 -30 -14.5 -54l-29.5 -47t-33 -23q-14 0 -23 17l38 61q7 -15 22 -13q1 38 -17.5 62t-43.5 24q-17 0 -32 -13q-18 -48 -18 -99q0 -52 21.5 -90.5t54.5 -38.5q15 0 28 10l5 -1q11 0 25 14q11 12 21 24q11 30 19 60l-10 192 q0 19 4.5 45.5t4.5 34.5v66l-5 -6q0 5 1 27q1 18 0 27l-10 127q-3 38 -23 38q2 0 2 2q0 3 -8.5 24t-8.5 26q0 2 1 2q19 0 27 7.5t12 7.5t27 -4t27 -4q5 0 12 7q15 -11 33 -14q-12 -2 -39 -78z" />
<glyph unicode="K" horiz-adv-x="394" d="M33 774l44 4l42 12l-10 -20q-14 -30 -6 -141q0 -51 1 -151v-25q10 -1 28 3q2 4 35 26q9 6 11.5 20.5t9.5 15.5q9 6 26 21q27 112 58 162l41 47q5 6 11 23q5 14 15 18q1 1 4.5 5t5.5 4q8 0 54 -11l34 13q-7 -9 -29.5 -29.5t-30.5 -24.5q-3 -13 -4 -26l1 -1q0 -2 -6 -3 q-22 -3 -28 -9.5t-20 -36.5q-8 -21 -25 -62l-56 -108q-43 -82 -43 -98q0 -24 11.5 -54t11.5 -71q0 -22 14 -57q12 -26 23 -53q3 -7 14.5 -18t14.5 -22q2 -14 7 -43q7 -22 21 -51q19 -40 23 -49q3 -17 12 -43l6 -9q3 -7 2 -6h-1q2 -12 38 -116q0 -6 1 -17l58 -78 q32 -33 77 -33q30 0 46 8q6 4 39 30l12 25q9 18 9 24q0 7 -22.5 50.5t-27.5 45.5q-43 17 -55 17q-40 0 -69 -45q5 -15 29 -33t35 -18q10 0 22 8q0 2 -17 38q2 12 10 20l11 -5q3 -1 4.5 -11t3 -12t31.5 -29l-5 -30q-5 -1 -16.5 -6.5t-18.5 -5.5q-21 0 -48 16q-22 16 -45 31 q-7 4 -13 26.5t-6 35.5q0 20 12 30l17 13q2 7 10 18h8q11 -1 30 6t28 7q19 0 46 -20q35 -25 45 -29q5 3 6 12q54 -89 60 -104q0 -11 1.5 -32t1.5 -32q0 -24 -6 -31q-4 2 -10 16q-7 -5 -17 -28q-20 -4 -33 -28t-14 -24q-4 -1 -12 0q-11 2 -13 2q-12 0 -19 -9q-3 1 -12.5 3 t-14.5 2q-14 0 -19 -21q-12 2 -35 9q-7 4 -18.5 17.5t-18.5 18.5q-28 21 -39 42q-11 13 -30 41q-21 38 -51 116q-24 49 -65 159q-4 13 -21 50q-5 19 -16 56q-5 17 -25 54q-17 33 -23 57q-13 61 -20 84q-18 58 -34 65q-21 9 -28 8q1 -2 2 -6v-4q0 -5 2.5 -14.5t2.5 -13.5 q0 -8 -2.5 -22.5t-2.5 -22.5q0 -34 15 -67q-7 -4 -7 -14q0 -13 5 -38.5t6 -37.5l2 -71q3 -57 10 -60q3 -1 -24 -44t-24 -43q-26 128 -26 148q0 14 5 40q5 31 6 40q-1 -4 -1 44q0 16 2.5 50t2.5 51q0 77 -18 85q-30 -5 -56 -17q-5 -10 -14 -26q-3 0 -7 -4q-4 7 -7 8 q0 5 3 12.5t3 12.5q0 1 1.5 8t0.5 8q7 11 19 17h10l15 -1q4 13 13 17.5t18 7.5q-2 14 -2 37q0 14 2 42t2 42q0 40 -2 76q-5 16 -12 49q3 7 -23 47t-24 48h28z" />
<glyph unicode="L" horiz-adv-x="353" d="M344 70q1 -24 -5.5 -27t-6.5 -27q0 -8 4.5 -26t4.5 -27q0 -6 -1 -7q-43 22 -45 22q-3 0 -13.5 -6.5t-15.5 -6.5q-26 0 -65 17.5t-64 17.5q4 0 -32 3q-22 1 -32 -3q-6 -3 -37.5 -14t-35.5 -11q-2 0 10.5 10t12.5 15q0 15 9.5 14.5t14.5 6.5q12 17 22 63q8 41 8 72 q0 5 -3 15.5t-4 15.5q-7 83 -7 147q0 19 4.5 45.5t4.5 33.5q0 29 -2.5 59t-2.5 55v128q0 18 -14 55t-24 37q20 0 40.5 12.5t24.5 12.5t16 -9t16 -9q3 0 17.5 3t16.5 3q-10 -31 -29 -68q5 -9 5 -17q0 -63 -6 -79q2 -9 5 -16q-1 -11 -11 -43t-10 -44q0 -13 7 -27l1 -10 q2 -45 -10 -62l-1 -10q0 -13 3.5 -35t3.5 -33v-68q-1 -42 -1 -68q1 -5 -1 -14.5t-2 -14.5q0 -44 3.5 -57t23.5 -41q11 -2 47.5 -19.5t40.5 -17.5q7 0 19.5 2t18.5 2q-1 0 22 -4q3 24 16.5 25.5t13.5 26.5q6 6 14 22l11 -4v-16z" />
<glyph unicode="M" horiz-adv-x="385" d="M261 -23q-2 16 -2 30q0 31 10.5 48t10.5 24t-3.5 19t-3.5 18q0 16 3 49t3 50q0 14 -5.5 41t-5.5 40v41q1 30 1 40q0 14 -2.5 39.5t-2.5 39.5q0 73 -12 80q-29 -24 -36 -106q-6 -9 -16.5 -52t-10.5 -58q0 -10 8 -20.5t15 -10.5q6 0 8 4l3 -10q-8 -16 -43 -16 q-4 0 -11.5 -4t-11.5 -4q-8 0 -23 6q-19 6 -23 7l-3 9q15 27 15 72q0 40 -14 95l-25 91q-12 -111 -12 -185q0 -16 -2.5 -48t-2.5 -47q-5 -20 -5 -22q0 -9 7.5 -46t8.5 -49q17 -186 32 -225q-7 0 -20 27t-27 26q-5 0 -16 5.5t-16 5.5q-22 158 -19 233l12 102v30 q0 10 5.5 36.5t5.5 49.5q0 7 6 25.5t7 24.5q4 29 4 91q0 11 -2 62q-1 43 0 67q1 36 9 56q-4 52 -11 83q1 5 -7 14.5t-7 14.5l83 11q-24 -79 -20 -112q3 -49 11 -146l7 -13q0 4 0 -27q0 -17 6 -35q7 -22 9 -31l10 -73q9 -48 29 -47q17 48 17 63q0 -2 -5 33q8 34 7 65 q5 24 20 70q1 8 0 21q-1 16 -1 21q0 9 3 15q9 9 9 24q-1 17 -1 34l-2 11q2 4 38 25t41 21q6 0 6 -3q0 -2 -10.5 -19.5t-14.5 -33.5t-4 -32q0 -25 9 -64q11 -53 13 -65v-61q0 -27 15.5 -80.5t15.5 -82.5q0 -11 5.5 -29t5.5 -25q0 -11 -7 -24q3 -33 7 -44l18 -38q0 -13 -3 -42 t-3 -44q0 -11 4.5 -31.5t4.5 -30.5q0 -8 -3.5 -15t-3.5 -9q0 -5 8 -4q8 -34 16 -167q-87 124 -113 121z" />
<glyph unicode="N" horiz-adv-x="316" d="M316 802q-41 -98 -41 -236q0 -22 -6 -53t-6 -40q0 -12 5 -17q0 1 0 -63q0 -2 1 -4l3 -7l3 -12q-12 -54 -12 -98q0 -37 5 -54q0 -11 -9.5 -51.5t-9.5 -53.5q0 -28 6 -57q7 -33 8 -57q0 -7 9 -40.5t10 -60.5q5 -8 -2 -46q-41 117 -44 137q-2 13 -26 48q-1 39 -11 116 q-6 14 -17 43q-2 18 -7 54q-1 3 -11 26q-5 12 -18 74q-8 44 -42 78v-17q0 -8 2 -25t2 -25q0 -13 -4.5 -38t-5.5 -37q-1 -27 -1 -73v-34v-43q0 -53 -3 -73l-26 -102l-1 57q0 19 -4 19q-1 0 0 10q4 18 9 54q1 11 -2 13q0 29 -3.5 87.5t-3.5 88.5q0 24 1.5 58.5t1.5 57.5v181 q0 12 -6 13q-19 127 -45 127q-3 0 -6 13l-4 16t-6 8q-7 0 -1 -4q4 -2 25 -10l31 -11l63 10q-25 -48 -21 -67q2 -8 14 -76q1 -33 11 -102q7 -30 32 -98.5t32 -101.5q8 -24 22 -74q18 20 18 48q0 12 -3 34.5t-3 33.5q0 21 5 54q6 48 7 54l19 193q4 44 -4 63q2 19 2 33l-43 105 q94 4 96 0l39 2q-20 -38 -24 -48z" />
<glyph unicode="O" horiz-adv-x="453" d="M440 358q0 -17 -5.5 -18.5t-6.5 -7.5q2 -15 2 -29q0 -34 -10 -77q-62 -275 -188 -275q-40 0 -129 99v0q-17 -2 -42 90q-18 69 -25 113q-15 104 -15 141t12 130q13 107 25 107q5 0 4 -3.5t4 -3.5q-1 0 25 53q28 60 71 86q32 20 59 20q16 0 54 4l68 -36q-32 -9 -73 -9 q-48 0 -109 -98q-55 -88 -72.5 -169t-17.5 -147q0 -86 33 -162q17 -38 57 -70q51 -42 63 -57q7 -18 33 -18q30 0 51 33q6 9 35 71q44 95 44 199t-40 215l-72 67l-110 3q12 25 44 42q28 15 52 15q83 0 120 -58q32 -50 48 -181q1 -6 7 -34q4 -22 4 -35z" />
<glyph unicode="P" horiz-adv-x="416" d="M129 -36q-5 0 -11 5t-9 5q-5 0 -21.5 -10t-29.5 -11h-6q-2 4 12.5 25t14.5 26q25 0 25 62q0 15 4 41q6 31 7 41q-1 -4 -1 44q0 16 2.5 49t2.5 49q0 78 -16 78q-58 0 -65 -3l-15 -26l-7 -3l-6 7q0 4 3 11t3 13q0 5 -4 11q23 31 60 39q28 6 28 21t1 54t1 53t-6.5 31.5 t-7.5 29.5q-4 15 -9 48q-9 0 -9 43q0 9 -14 34q4 0 -14 16.5t-14 16.5q10 0 30.5 -4.5t28.5 -4.5q16 0 48.5 9t48.5 9q4 0 69 -9q39 -2 77 -3q38 -5 55 -39v-12l12 -23q10 -18 10 -23q0 -86 -89 -175l-92 -85q-2 -4 -27 -12t-23 -18q-11 -2 -27 3q-3 0 -3 -9q0 -5 2.5 -13.5 t2.5 -12.5q0 -8 -2.5 -22.5t-2.5 -22.5q0 -36 15 -67q-6 -4 -6 -15q0 -13 5 -38q6 -28 7 -39q5 -89 5 -90q6 -73 15 -77q-9 0 -28.5 -3.5t-29.5 -3.5zM297 610q0 30 -17.5 62t-36.5 32q-4 0 -13 -3t-13 -3h-2q-11 6 -31 16q-9 4 -29 4.5t-30 4.5q5 -34 13 -102v-153l1 -27 q15 2 32 11q-2 8 -1 8q25 3 41.5 24.5t19.5 21.5q11 7 30 23q8 10 22 39.5t14 41.5z" />
<glyph unicode="Q" horiz-adv-x="473" d="M780 -154q0 -17 -5 -24q-6 6 -10 11q-7 -7 -13 -30q-5 -3 -12 -28.5t-10.5 -29t-8.5 -1.5l-9 2q-23 0 -35 -19l-24 -4q-14 -5 -16 -23q-5 0 -15.5 -1.5t-15.5 -1.5q-3 0 -10.5 8t-10.5 8t-7 -1.5t-6 -1.5q-15 0 -42 30q-11 7 -32 26q-30 32 -72 101q-23 12 -30 42 q-10 43 -18 55q-10 16 -31 56q-45 -59 -105 -59q-42 0 -133 99h-1q-17 -2 -43 90q-19 68 -25 113q-16 103 -16 141q0 40 11 122q12 91 24 113q0 1 2 2q2 0 5.5 -4.5t5.5 -4.5q1 0 3.5 3.5t30.5 67.5q19 42 63 69q3 0 11 1t13.5 1t17.5 6.5t17 6.5q3 0 12 -4q18 -3 53 -16 q78 -39 122 -145q41 -101 41 -231q0 -24 -1 -32.5t-6 -10t-6 -7.5q2 -15 2 -29q0 -51 -24 -130q-21 -70 -46 -116q11 -21 34 -60q8 -13 9 -24.5t6 -20.5l18 -42q17 -25 49 -76l3 -14l55 -51.5t67 -26.5q33 -2 84 59q14 53 14 45q0 9 -25.5 40t-32.5 32l-27 3q-58 0 -83 -66 q6 -12 28 -20q18 -6 33 -6q11 0 25 15q-1 4 -20 29q3 11 5 16q12 1 14 -5q2 -10 4.5 -12t31.5 -15l-1 -24q-7 -6 -21 -16q-20 -12 -56 -12q-3 0 -19 9.5t-21.5 11t-14.5 19.5t-9 28q0 16 8 25q13 14 14 16q1 10 6 17q10 2 37 14q23 10 38 10q12 0 35 -4t35 -4l5 9 q21 -21 76 -92q0 -5 1 -14v-13zM400 336q0 58 -11 124q-3 18 -24 71t-21 58q0 2 1.5 4t1.5 4q0 27 -50 65q-46 36 -68 36q-59 0 -110 -135q-45 -120 -45 -221q0 -70 22 -132q22 -66 60 -96q49 78 100 78q20 0 47 -28q2 -2 42 -50q55 120 55 222zM320 64q-64 80 -90 80 q-30 0 -69 -34q25 -17 72 -61q7 -18 34 -18q31 0 53 33z" />
<glyph unicode="R" horiz-adv-x="388" d="M34 782q9 0 23.5 -6.5t21.5 -6.5q17 0 49.5 9.5t48.5 9.5q4 0 69 -9q15 -1 68 -15q1 -6 19.5 -14.5t20.5 -12.5v-11q6 -12 13 -23q9 -18 9 -23q0 -116 -64 -171q-13 -7 -36 -29q-46 -66 -46 -73q0 -22 9 -44l14 -33q2 -8 2 -49q0 -23 16 -58l24 -54l33 -111 q11 -34 66 -165l18 -62q14 -33 39 -98l2 -18l65 -91t81 -45q31 0 46 8q4 2 41 30q7 12 13 25q10 19 10 25q0 8 -24.5 53t-30.5 47q-45 18 -59 18q-49 0 -77 -48q5 -16 31 -35t40 -19q12 0 26 8q-1 5 -19 41q3 6 9 17l11 -5q3 -1 4 -10t3 -12t34 -29l-5 -27q-6 0 -17.5 -5.5 t-18.5 -5.5q-22 0 -51 16l-49 31q-7 4 -13 25.5t-6 35.5q0 17 12 26l19 15q3 11 10 17q36 -2 107 -11l61 -26l7 10q47 -73 47 -132q0 -36 -16 -73l-28 -16q-10 -1 -29 -5q-8 -1 -40 -38q-4 1 -14 3t-15 2q-11 0 -16.5 -10.5t-13.5 -10.5q-9 0 -27 9q-5 2 -13 16 q-7 10 -20 10q-19 0 -48 52q-12 12 -33 41q-57 98 -133 350q-7 21 -24.5 56t-23.5 53l-41 159q-33 120 -56 129q-11 -2 -27 3q-3 0 -3 -9q0 -4 2.5 -13.5t2.5 -15.5q0 -8 -3 -22.5t-3 -23.5q0 -31 16 -63q-6 -3 -6 -14q0 -14 5.5 -40t5.5 -38q1 -7 -9 -91q-11 -87 -11 -117 q0 -20 4 -21q-12 0 -16 21q-2 17 -5 34l-4 46q-4 39 -9 39q0 5 -1 49q-2 35 0 50q-1 -4 -1 45q0 16 2.5 48.5t2.5 49.5q0 92 -22 92q-17 0 -59 -18q-5 -9 -15 -25l-7 -4l-6 7q0 4 3 11.5t3 12.5t-4 11q20 27 34 27q7 0 11 -5q3 13 18 13q22 1 25 2q-3 17 -3 45q0 15 2 43 t2 42q0 15 -2 31q-4 20 -5 30q-2 30 -4 41q-6 38 -17.5 56t-34.5 38q-20 17 -20 20q3 0 10.5 3t12.5 3zM290 625q0 30 -17.5 62t-36.5 32q-5 0 -13.5 -3t-13.5 -3h-2q-10 6 -31 16q-6 3 -13 3q-11 0 -20 -6q2 -18 -6 -46t-6 -45q-1 -50 0 -152l1 -27q15 2 31 11q1 -1 25 16 q28 20 36 38q10 7 29 23q8 10 22.5 39.5t14.5 41.5z" />
<glyph unicode="S" horiz-adv-x="328" d="M305 225q0 -6 -5 -23t-5 -21q0 -5 2.5 -14t2.5 -13q0 -8 -19.5 -64.5t-24.5 -67.5q-2 -5 -15.5 -7t-16.5 -5q-38 -40 -41 -42q-25 -23 -44 -23q-46 0 -85.5 50.5t-39.5 120.5q0 13 9 34t9 34v2q0 13 3 19q10 18 30.5 36.5t34.5 18.5q71 0 71 -73q0 -5 -10 -22l-12 -24 q-15 -6 -30 -21q-9 11 -9 23q10 7 21 7q4 26 4 47q-2 2 -6 7q-28 5 -33 5q-18 0 -26 -23q0 -5 1 -15.5t1 -14.5q0 -11 -7 -25q-9 -17 -10 -24q0 -10 -2 -30q5 -3 21 -41.5t24 -38.5h13q3 8 10 24q9 -8 14 -17q8 7 27 19l22 6q15 5 19 15q-7 12 -7 28q0 7 1 19q9 6 10 17 q-1 4 -1 7q0 18 15 36q1 7 1 14q0 14 -6.5 26t-6.5 19q0 3 4 24q-11 31 -28 92q-2 9 -13 23t-13 19q2 5 2 11q0 14 -17.5 28t-17.5 27q0 4 1 9q-10 10 -29 33q-10 25 -36 67q-2 3 -28 18q-18 11 -18 29q0 2 12 42q4 23 8.5 46.5t18.5 38.5l20 12l36 40q15 15 45 15 q50 0 69 -25l44 -83q6 -12 6 -22q0 -17 -16.5 -51.5t-28.5 -44.5t-41 -10q-16 0 -28 44q0 13 10 37.5t18 24.5q6 0 9 -4q1 -17 3 -35q1 -23 9 -23q24 0 24 55q0 20 -21 69q-10 23 -48 23q-12 0 -35 -12t-30 -25q-3 -9 -13 -26t-10 -22q0 -31 24 -56l39 -38q0 -2 -12 -18 q2 -6 35 -37q7 -7 22.5 -43t30.5 -51q2 -2 37 -26q3 -12 12 -31q6 -12 6 -43q0 -14 17 -47.5t17 -38.5z" />
<glyph unicode="T" horiz-adv-x="546" d="M112 756q37 6 75 6q9 0 47.5 8t46.5 8q4 0 16.5 -9t16.5 -9q3 0 7 3.5t6 3.5q12 0 35 -1.5t35 -1.5q5 0 13 -3t12 -3q12 0 41 5t41 5q3 0 14.5 9.5t15.5 9.5q2 0 3 -1q-2 -16 -15 -71q-11 -47 -11 -71q0 -31 6 -63q-2 2 -15 38q-16 40 -22 64q-4 16 -17 19q-5 2 -27 2 q-59 0 -67 -31l-2 -1q-2 0 -3.5 8.5t-3.5 8.5t-10.5 -15.5t-10.5 -17.5q4 -10 4 -17q0 -3 -11.5 -18t-13.5 -20q2 -10 5 -17q-1 -10 -5 -35q-4 -21 -4 -34q0 -14 7 -27l1 -11q2 -47 -23 -81v-10q4 -22 7 -69q0 -5 -1 -16t-1 -17q0 -11 2 -31.5t2 -33t6.5 -39t6.5 -40.5 q0 -16 -6 -60t-6 -64q0 -29 9 -44q3 -5 -18 -69l-21 57v75q-4 15 -6 33v16q-1 18 -5 35.5t-4 37.5q0 5 -3 15.5t-4 14.5q-7 89 -7 149q0 20 5 46.5t5 32.5v67l-7 -6q0 9 1 26.5t1 26.5v131q0 38 -24 38q-6 0 -16 8t-16 8q-3 0 -22.5 -4.5t-22.5 -4.5q-3 -2 -27 14 q-5 4 -23 -19l-23 -16l-3 -11l-7 -33l-2 -5q-2 -11 -1 -33l4 -3q5 -9 16 -22q3 -2 17 -1q14 2 16 4l15 34l5 11l1 5l15 33l-3 3q-9 6 -18 6q-14 0 -25 -14l-13 -35q1 -1 3 -1q7 0 20 20l6 2q4 -4 4 -10q0 -10 -11 -26q-3 -3 -9 -3q-12 0 -31 12l-1 7l20 43q31 16 42 16 q15 0 33 -13q6 -4 6 -6l-30 -46l-5 -11l-15 -36l-33 -13l-34 -13v2q-13 10 -11 12l-12 12q-15 16 -15 18t7 13.5t7 25.5q0 15 -6 32q8 24 26 55l20 14z" />
<glyph unicode="U" horiz-adv-x="462" d="M65 759q6 0 17 5.5t16 5.5l2 -2q3 -7 9 -7q5 0 14.5 5.5t13.5 5.5t9.5 1.5t7.5 1.5q6 0 6 -11q0 -14 -14 -28q-18 -17 -22 -28q-12 -23 -22 -45.5t-10 -55.5q0 -45 -8 -132.5t-8 -131.5q0 -108 38 -181q19 -38 93 -126q7 -18 33 -18q55 0 87 100q27 82 27 175q0 31 -4 75 q-5 63 -6 74q0 41 -2 123q0 6 -13.5 54.5t-17.5 54t-11 21.5q-5 24 -1 64q-6 4 -30 53q-23 45 -32 47q10 0 29.5 -6.5t27.5 -7.5q41 -6 89 -6q10 0 30 7t30 7q7 0 10 -2q-3 0 -14.5 -23.5t-12 -24t-4.5 -7.5q-2 -18 -15.5 -39.5t-13.5 -29.5q0 -4 7 -19.5t7 -19.5l-8 -24 t-7 -37l4 -100q1 -24 8 -88q6 -56 6 -89q0 -17 -5.5 -18.5t-6.5 -7.5q2 -14 2 -29q0 -32 -10 -76q-14 -60 -34 -127q-32 -108 -48 -108q-8 0 -44 -26q-12 -9 -49 -9q-4 0 -36.5 14.5t-34.5 17.5l-46 64q2 0 2 3t-14 39q-32 81 -45 168q-5 34 -5 109q0 32 2.5 96.5t2.5 96.5 l-9 49l6 71q-19 14 -30 96q10 0 29 -7t28 -7z" />
<glyph unicode="V" horiz-adv-x="446" d="M466 887l-12 -25q-9 -14 -20 -20v-3q-6 -17 -23.5 -44t-23.5 -41l4 -3q-47 -95 -66 -269l5 -11q-44 -130 -76 -305q-14 -77 -49 -312l-2 -2l-2 2q-7 23 -2 88q-20 43 -35 167l-20 179l-21 25q0 70 -32 188q-35 132 -41 187l-12 15l-3 28l-25 30l20 8q43 -10 45 -10 q54 0 81 33q-26 -111 -26 -192q0 -41 14 -125t14 -127q0 -26 14 -63q13 -30 25 -61q9 -23 12 -47q28 97 48 254q10 85 35 252q-2 9 -9 22l22 24q-5 22 -2 66q-13 14 -26 43q-17 39 -21 46q31 -5 61 -11q37 -6 62 -6q18 0 52.5 9t52.5 9v2h-18z" />
<glyph unicode="W" horiz-adv-x="446" d="M399 546q0 -9 -12.5 -32t-12.5 -41q0 -15 9 -33q-38 -171 -38 -261q0 -36 -17.5 -107t-16.5 -110l-4 -2l-18 20l3 10q0 36 -21 96q-28 78 -32 96v0l1 31q3 62 -23 131l-21 -15q-10 -27 -21 -97t-11 -101q0 -52 -13 -135l-20 -136l-4 -3l-4 4q-4 20 -3 44q2 50 2 43 q0 81 -19 247q-20 178 -39 242q-6 18 -6 125q0 103 -7 118q-15 32 -14 44l-32 40l13 5l55 -14l33 12l10 -9l28 11q2 1 7 -1l2 -15q-20 -38 -35 -122q-12 -75 -12 -131q0 -81 26 -308l26 96q13 55 13 97q0 45 -16 72l2 8q4 1 24 9q15 5 22 5q13 0 35 -6q26 -6 30 -14 q2 -4 -3 -7t-6 1q-24 -18 -24 -33q0 -24 25 -112q27 -92 41 -103q12 28 12 110q0 60 12 180.5t12 179.5q0 9 -11 33.5t-10 39.5q-11 14 -23 43q-15 33 -22 45q39 -10 41 -10q19 0 62 11.5t63 12.5q-38 -47 -38 -304z" />
<glyph unicode="X" horiz-adv-x="467" d="M62 762q6 0 17 5t16 6l2 -2q2 -6 8 -6q5 0 14 5t14 5q-1 0 1 -48q2 -56 2 -52q0 -5 95 -212q64 223 64 272q0 66 0 65q1 0 1 2q0 4 -6 21t-6 21q0 2 1 2q15 0 44 -2.5t43 -2.5q8 0 23.5 4.5t23.5 4.5q10 0 17 -4q-16 0 -34 -40l-25 -60q-12 -1 -23 -46 q-14 -37 -37 -108.5l-61 -182.5q55 -122 55 -129q0 -3 -3 -7.5t-3 -7.5q0 -11 80 -152t80 -144q-1 -2 -40 -2q-18 0 -58 18l-21 -3q-5 44 4 54q-23 46 -50 106q-5 11 -14 29q-19 48 -61 146l-53 -146q-35 -98 -45 -151l-10 -41l-55 6l-48 -9l-44 6q71 40 77 40q3 0 14 5.5 t10 8.5q26 45 66 183q3 9 7 9t57 143l-28 54q-22 44 -22 48q0 2 1 6.5t1 6.5q0 -3 -79 202q-16 12 -21 25q-9 10 -19 32l-12.5 13t-13.5 13q6 0 27 -4.5t27 -4.5z" />
<glyph unicode="Y" horiz-adv-x="460" d="M124 651q0 -10 6 -29t6 -29.5t23 -88t21 -89.5q0 -17 19 -26l36 81q29 62 29 75.5t6 42t6 44.5q0 6 4 18.5t4 19.5q0 3 -3.5 8t-3.5 6v1l26 4q2 1 2 2t-5.5 18.5t-5.5 39.5q0 12 1 27q-8 5 -9 46t-10 41q11 0 19 -2.5t17 -3.5q15 -2 79 -2q10 0 30.5 6.5t30.5 6.5 q2 0 2 -1q-1 -19 -29 -60q-31 -47 -35 -61q-13 -14 -29 -38q-4 -8 -4 -41q0 -25 -15 -54q-19 -37 -22 -47q-8 -37 -28 -107q-11 -24 -31 -73q-28 -80 -28 -187q0 -19 5 -52l4 -73q3 -46 17 -69q9 -14 20 -14q-12 -14 -22.5 -14t-26.5 -8.5t-29 -8.5t-39.5 -7.5t-39.5 -8.5 q-2 2 -7 3.5t-5 6.5l49 40q4 3 10 10l-1 16q-1 19 7 64.5t8 64.5q0 4 -3 14.5t-3 15.5q-1 23 -4 68q-4 49 -48 202q-42 144 -65 198q-17 11 -26 73q-6 8 -24 22q2 5 -1 13.5t-3 9.5q0 3 4 3q12 0 34.5 -5.5t33.5 -5.5q7 0 19.5 5t18.5 5l3 -1q1 -3 11.5 1l10.5 4q3 0 3 -4 q0 -8 -9 -38.5t-9 -37.5q0 -5 2 -5q-4 -9 -4 -35zM451 862z" />
<glyph unicode="Z" horiz-adv-x="395" d="M226 304q23 -3 70 46q11 56 11 57q0 14 -8 34l-20 15h-20q-9 -71 -33 -152zM156 322q10 -4 24 -9q34 95 34 129q0 14 -2 18t-14 6l-4 -5l-65 -1q-5 10 -5 19q0 7 13.5 30t13.5 28q11 0 24 -5.5t24 -5.5q3 0 6 -3t4 -3q6 0 29 71q4 13 4 60q0 19 -2 25q-4 16 -37 27 q-25 8 -44 8q-20 0 -25 -2q-12 -3 -16 -18q-4 -25 -16 -86q-15 2 -15 22q0 5 1.5 15t1.5 13q0 23 -6 57q-8 44 -9 55q19 17 29 17q14 0 43 -14t43 -14q5 0 13.5 4.5t12.5 4.5q6 0 19 -7t19 -7q5 0 14 4.5t13 4.5q3 0 9 -4.5t10 -4.5q10 0 35 9q2 -5 11.5 -2.5t9.5 -2.5 q-16 0 -50.5 -80.5t-34.5 -105.5q0 -50 5 -56q24 -7 62 -30q10 -11 19 -45q8 -31 -3 -73q-2 -6 -13 -18.5t-13 -21.5q-4 -16 -56 -42q-48 -24 -66 -26q-52 -170 -52 -177q0 -4 11.5 -18.5t9.5 -21.5q6 -16 21 -18q-9 2 26 2q15 0 48.5 10.5t48.5 20.5q-3 3 -3 9q0 21 14 40 q18 24 22 38h13q8 0 8 -18q0 -11 -3.5 -34.5t-3.5 -29.5q0 -23 22 -66v-11q-29 -22 -34 -22t-14 5t-14 5q-3 0 -8 -5t-9 -5t-14.5 7t-15.5 7q-13 0 -31.5 -2t-41.5 -2q-16 0 -41.5 6t-50.5 6q-4 0 -12 -7l-12 -11q-8 0 -22 -2.5t-21 -2.5q-3 0 -10.5 -2t-11.5 -2q-9 0 -9 12 q0 11 60 94l80 201q-12 4 -23 10l-2 1q-10 6 -20.5 34.5t-7.5 40.5q8 36 18 43q4 3 58 21l-30 -38q1 -2 1 -29q1 -21 6 -24z" />
<glyph unicode="\" horiz-adv-x="409" d="M319 -95h-47l-88 482v30l-94 452h47l67 -355l5 -52z" />
<glyph unicode="^" horiz-adv-x="308" d="M267 581l-115 53l-111 -53l2 22l115 109l34 -50l9 -31l30 3z" />
<glyph unicode="_" horiz-adv-x="524" d="M62 -23h401v-45h-401v45z" />
<glyph unicode="`" horiz-adv-x="179" d="M147 488q-1 0 -11 -13t-13 -12q-29 20 -39.5 38t-21.5 26q-8 39 -18 82q6 2 15 7q-2 3 -3 14q0 8 -4 8q-5 0 -10 -6q-10 21 -10 30q0 5 7.5 18.5t7.5 18.5q0 9 -4 15q3 3 5 10q2 0 5.5 -3t5.5 -3q3 0 10 10.5t17 10.5q20 0 28 -2q15 -21 22 -62q1 -3 4.5 -10.5t3.5 -11.5 q0 -13 -21 -30q-2 3 -6 7q0 -2 -17 -20q-12 -14 -12 -35q0 -7 2 -16q5 -23 26 -48.5t29 -25.5q2 1 2 3z" />
<glyph unicode="a" horiz-adv-x="194" d="M200 69q0 -4 -6 -4l-2 1l-2 -2q-8 0 -14 8h-3l-6 6q0 -3 -6 3l-8 10v2q-7 17 -12 17q-1 0 -5.5 3t-5.5 4q-2 7 -2 21l-2 4q-7 -13 -22 -33q-40 -34 -66 -34q-2 0 -11 16.5t-11 16.5t-1.5 -1t-1.5 -1q-8 0 -8 22q0 -3 15 53q0 4 -2 7q12 21 12 12h2l23 37q7 0 14 8 q2 5 3 10q5 6 6 8.5t1 6.5q-1 6 -1 11v1q10 7 30 24q-4 22 -19 61h-7q-16 0 -26 -12q-1 -11 -5 -31q3 -5 12 -6q0 -1 -5 -17h-4q-8 0 -24 16q-4 0 -6 2v10q8 3 12.5 14t8.5 22q3 7 17 17t20 10q14 0 30 -15q9 -16 17 -32q1 -5 5 -36q6 -10 6 -22q0 -5 6.5 -20.5t6.5 -29.5 q0 -6 2 -17.5t2 -17.5t-2.5 -18t-2.5 -19l7 -39l9 -10v-14q2 -3 3 -6q19 -23 27 -23zM118 157q0 7 -4.5 17t-8.5 10t-10 -10q3 -3 7 -11q-4 -19 -22 -19q-4 0 -4.5 3t-2 8t-1.5 8q0 22 17 35l29 16v21q0 8 -7 19t-12 11q-4 0 -7 -8q-5 -11 -5 -12q-8 -7 -22 -22 q-8 -53 -8 -41q0 -2 3 -12q-13 -10 -13 -29q0 -5 9 -25q20 -10 17 -10q8 0 26.5 20t18.5 31z" />
<glyph unicode="b" horiz-adv-x="199" d="M99 607q-27 -92 -27 -161q0 -17 -6 -29.5t-6 -22.5q0 4 4 -19q7 12 19 29q8 11 40 36q3 -10 9 -10q2 0 7.5 1.5t7.5 1.5q10 0 18 -9q19 -85 19 -114q0 -9 -2 -32.5t-2 -34.5q0 -53 -12 -74q-4 -6 -14 -16q-2 -4 0 -7t-1 -5l-14 -10.5t-15 -5.5q-51 0 -51 50q0 36 19 65 q4 7 17 17.5t18 10.5l-23 -35q-6 -39 -6 -48q0 -32 18 -32q8 0 23 14.5t18 57.5q3 61 4 66q-2 74 -16 86q-5 16 -12 16q-5 -1 -4 -5q-16 -3 -33 -39t-15 -61q-4 -9 -9 -18q-6 -16 -6 -39.5t-13 -106.5l-21 -24q14 57 14 72q0 5 -6 9q8 19 8 33q0 41 -2 59l-3.5 14t-2.5 16 q0 11 2.5 33.5t2.5 34.5q0 11 -1 33t-1 33q0 12 3.5 37.5t3.5 37.5l-1 1q-1 -7 -4 -15q-1 1 -1.5 3t-0.5 16q0 7 -1 11t-5 11t-4 11q0 3 1.5 9t1.5 10.5t2.5 12.5t2.5 15q-11 30 -24 61q6 0 26 -10t26 -10t17 5t16 5q-3 -3 -3 -19q1 -18 0 -22z" />
<glyph unicode="c" horiz-adv-x="151" d="M141 200q0 3 -16 -36q0 -4 -2 -12.5t-15.5 -28.5t-18.5 -20q-1 0 -13 11.5l-13 12.5l-3 -5h-5q-11 15 -28 49q0 10 -8 26q-2 8 -2 46q0 12 -7 16v9q0 2 4.5 14.5t2.5 22.5q8 49 34 70q8 3 23 10q1 0 7.5 6t7.5 6q2 0 6.5 -5.5t5.5 -6.5q20 -15 20 -45q0 -49 -16 -49 q-5 0 -9 7q0 10 13 11q5 11 5 22l-8 20q-8 1 -22 7q-5 -3 -10 -23q-3 -2 -18 -22.5t-15 -23.5q0 -18 12 -33q1 -8 1 -12q0 -12 -4 -21v-4q-1 -12 9 -27q9 -10 17 -21v-2q-1 -19 20 -19h1q2 -4 3 -4q6 0 10 12.5t4 21.5q2 2 9 3q4 7 8 15t8 8q1 -1 2 -6z" />
<glyph unicode="d" horiz-adv-x="160" d="M189 44q0 -4 -6 -4l-2 1l-2 -2q-8 0 -14 8h-3l-6 6q0 -3 -6 3l-9 10l1 1q-7 17 -10.5 17t-7.5 3.5t-5 3.5q-2 7 -2 21q0 5 -3.5 9.5t-3.5 5.5l2 2l-3 12q3 3 0 3v7q-2 12 -3 12l-3 -2l-2 -9v-1q-1 -8 -18 -37h1l-5 -7q-10 -7 -26 -31l-2 1v-3l-2 1l-2 -2q-10 -7 -11 -7 q-6 0 -6 3l-2 1l-8 10l-2 4q1 5 2 3q0 -4 0 32q0 17 -2 16q-3 20 -3 24q0 8 19 51h2v7q0 2 -1 5t-1 6h2l16 26q-1 1 -1 36q13 13 29 37q1 4 2.5 9.5t3.5 5.5l18 -14l4 2l-2 1v91q1 0 2 15l2 6l-1 1q8 126 8 113l-6 11h-2q-2 0 -2 9q0 15 9 42.5t9 42.5q0 48 -4 98l2 3l-2 15 q-1 2 -2 5l-7 -5l-1 1l-14 -12q1 -1 -10 -12v-1l-5 -7v2q-6 0 -18.5 -7.5t-12.5 -13.5l-2 1l-1 -2l-8 -17h-1l-2 -8l1 -2q-3 -15 -9 -19t-6 -8l3 -3q1 0 18.5 11t18.5 11q2 0 1 -7q0 -6 -10 -6q2 0 -4 -5q-20 -19 -27 -19q-12 0 -12 13l3 13v0l6 20v0l8 18l-1 1q31 63 40 63 v2q34 45 48 45l10.5 6t13.5 6q5 0 8 -2q1 -8 6 -20l-9 -12l-2 -2t0 -4l6 -23q-3 -2 -3 -17.5t-2 -15.5l-1 -4l-3 -30l-4 -82l2 -2l-2 1q-2 -17 2 -46q5 -33 5 -45q0 -6 -6.5 -15.5t-6.5 -14.5l3 -7l7 -18l1 1q1 0 1 -3t1 -3l1 -12l-2 -2l2 -12q0 -8 2.5 -21.5t2.5 -18.5 q0 -8 -2 -24.5t-2 -25.5q-1 -1 0 -2v-10l-2 1l-2 -57v-120v-14l3 -57l5 -4v1l9 -9v-14q1 -3 2 -7q20 -22 28 -22zM107 281l-2 2l1 2q-5 1 -2 3q-3 6 -10 14l1 1q-4 4 -12 11l-1 -2h-2l-4 -5l1 -1q-13 -23 -12 -26l-2 -1l1 -4l1 -1q0 -10 -3 -27q-1 0 -2 -2q0 -1 2 -1 q-10 -17 -10 -27v-32q0 -2 1 -6v-7l2 -2q2 -17 2 -32l2 -1v-2l-1 -3q1 -1 2 -3l-1 -2l4 -14h3l18 30v2q1 3 6 9l-1 1q8 14 8 19l2 -2v2q0 -3 2 11l1 1q1 4 -1 7l1 1v8h1l1 25l-1 2q0 15 2 46q2 1 0 3z" />
<glyph unicode="e" horiz-adv-x="144" d="M134 301l-4 -4l-1 2l-11 -1q-1 2 -5 3v-1q-2 1 -6 2h-2v1q-2 0 -5 1h-3v2l-5 1q-1 0 -6.5 3t-8.5 4l-2 -1q-2 3 -4 3q-4 0 -4 -5l2 -2q0 -4 -2 -12q-1 -11 -1 -29q1 -26 -7 -35l1 -4l-2 -2v-33q12 -10 14 -30q2 -23 11 -33l1 1h2q-1 0 -1 2h1q7 11 22 37l-1 3q3 5 3 12v0 q-1 9 3 14v13q0 29 -17 29l-1 1l-2 -4q0 -10 3 -24l-1 -3l1 1q1 -4 10 -10v-3l-2 -3v-1l-2 -4l2 -2q-2 -4 -3 -9q-1 2 -4 0q-3 0 -7.5 4.5l-5.5 5.5q-2 10 -6 32q9 15 5 29l3 4h4q1 0 5 -2t5 -2t2 -1l1 1l3 -3l1 1q0 -1 1 -3l1 1l3 -2h2l8 -16l-1 -2q1 0 2 -2l-1 -1 q5 -9 3 -32l-1 -3v-9l-2 -3q0 -7 -6.5 -10t-6.5 -10q-6 4 -6 -11l-10 -21q-8 -6 -8 -21l-1 -2h-5q-8 32 -27 32l1 1h-3q-17 40 -40 58q3 9 1 14l11 53l2 11q-7 5 -7 14q0 16 20 45l29 36l1 -1q10 19 18 25q5 -1 13 -6h2v-1l25 -33q1 -5 0 -12q-1 -9 -1 -12q0 -7 5 -16t5 -10 zM105 361q-2 8 -4 8l-2 -1l1 1q-3 3 -8 10v-1h-1q-2 0 -1 1q-2 -5 -5 -16h-1v-2q-2 -6 -5 -14h1q-2 -6 -8 -18q5 -2 10 -2l6 1q3 -2 7 -2l2 -2q1 0 2.5 1l1.5 1q0 5 -1 7q0 7 3 20q0 2 1 4.5t1 3.5z" />
<glyph unicode="f" horiz-adv-x="163" d="M80 162v81q0 2 -1.5 19.5t-1.5 27.5q1 14 3 17q-7 19 -7 38q0 16 6 21v4q0 12 -4.5 28t-3.5 34q-3 6 -15 6q-2 0 -6 -1t-5 -1q-4 -4 -7 -11h-1l-3 -1q-2 0 -4.5 2.5t-4.5 2.5q-1 0 -11 -7q-6 4 -6 10q0 3 4 20t4 22q25 0 52 -12l3 4l-4 10q0 14 3 35q0 1 -5 6t-5 9 q0 3 4.5 17t5.5 18q0 24 9 66q3 6 13 14.5t14 8.5q7 0 41 -20q14 -20 18 -40.5l8 -41.5l-2 -5q-2 2 -6 2q-3 0 -11.5 -9.5t-16.5 -9.5q-15 0 -19 9l-10 28q2 8 9 8q7 -20 7 -32q6 -4 9 -4q7 0 11 13q-2 11 -2 19q0 7 2 14t2 8q0 15 -14 15l-11 17h-9q-2 0 -2.5 -6t-1.5 -7 q-14 -8 -14 -28q0 -5 1.5 -15.5t1.5 -16.5q-4 -9 -4 -16q0 -5 2 -13t2 -12q0 -8 -5 -17q2 -4 8 -5t7 -5l-1 -7l1 -5q2 -4 6 -4q34 0 41 -8v-8q-13 -7 -42 -7q-10 0 -17 -7q-1 -3 -1 -7q0 -28 5 -29l3 19q1 -6 4 -20q4 -28 4 -116q0 -3 -1.5 -7.5t-1.5 -6.5q-2 -16 -2 -83 q0 -20 -1 -74.5t-1 -67.5q1 -1 -7.5 -21.5t-7.5 -20.5q2 13 -3 81q-5 76 -5 81z" />
<glyph unicode="g" horiz-adv-x="196" d="M193 369q-2 -9 -11 -23l-7 8l-3 -5l3 -7q-5 -9 -3 -46q3 -56 3 -50q0 -6 -11 -43q0 -2 3 -30q3 -31 3 -36q0 -28 -6 -39l-3 2v-2q-1 -6 1.5 -18t2.5 -17q0 -15 -5 -47t-5 -49q0 -44 -41.5 -125t-75.5 -111l-8 5l-17 -4l-10 3l-10 -15h-2l-20 25l11 20q-3 1 -8 0l-5 18 q0 40 28 100q32 71 69 71q18 0 18 -28q0 -15 -14 -47.5t-26 -38.5q-9 13 -9 22l2 22l4 3l7 -6q8 0 17.5 16.5t8.5 24.5v8q-10 -1 -29 -4q-27 -46 -43 -127l10 -5q1 -6 10 -15t14 -10q9 0 15.5 16.5t12.5 16.5l6 -4l16 22l-8 5v10q-1 6 14 48q19 51 20 54l5 1l2 -5l-8 -24 l2 -3q2 17 20 31q-4 21 -4 34q0 52 10 68l-1 14q-1 26 8 116l-1 6q-13 -20 -45 -52q-14 -39 -43 -39l-25 6q-11 33 -11 58q0 34 21 97q24 70 48 83q3 10 19 16t27 4q1 5 14.5 12.5t17.5 10.5l23 3zM151 300v13l-9 5q-2 -6 -6 -17q-9 12 -12 12q-5 0 -9 -8t-10 -10 q-1 0 -16 1v-5q0 -20 -18 -64q2 -5 2 -8q-2 -7 -8 -14q-1 0 -2 1q-5 0 -5 -13q0 -5 1 -16t1 -17l15 -12q-2 -7 -2 -17q12 28 23 28q2 0 5 -1.5t4 -1.5l4 1q9 9 22 28q20 45 20 115z" />
<glyph unicode="h" horiz-adv-x="216" d="M25 121q14 28 17 133q0 19 3 79q2 49 2 78q0 11 -4.5 28t-5.5 25q-2 25 -7 73q-1 1 -14 19t-16 18q1 -1 3 -1q3 0 15 4.5t14 2.5q7 7 13 12t15 5q25 0 33 -1q2 0 2 -4t-3 -17.5t-3 -17.5q0 -5 2 -5q-4 0 -9 -20t-5 -28q0 -4 4 -46q6 9 5 9v-1q0 -11 -5 -39t-5 -42l3 -18 q5 3 15 21t16 18q2 0 5 -2t4 -2q2 0 5 3t5 3q11 0 26.5 -36t15.5 -55q1 -2 0.5 -6.5t-0.5 -6.5q0 -3 9 -58.5t11 -62.5q3 -3 6 -13q1 -4 1 -59q0 -30 6 -55q1 -26 10 -61l32 -78q-6 1 -16.5 13t-17.5 12q1 5 -14 29.5t-15 28.5q0 12 -4 32t-4 31q0 21 -4 34q-6 18 -7 27 q2 -10 2 33q0 -9 -7 37q-9 8 -10 15q-2 34 -8 103q-7 17 -15 52l-5 4l-9 -25q-24 -4 -39 -59q-2 -6 -2 -35q0 -23 -8 -48.5t-8 -38.5q0 -79 -1 -70q-7 0 -23 -13.5t-22 -14.5q3 0 7.5 28.5t8.5 28.5z" />
<glyph unicode="i" horiz-adv-x="95" d="M97 352q-4 -10 -2 -10l-3 -4v-3q-5 -7 -15 -19q-5 0 -12 1v-1l-3 1v-1l-2 2l-2 -1v-1l-2 1h-1l-2 1l-2 -1v1l-4 -1l-2 2l-3 -1l-1 2l-2 -2l-3 3v-1l-2 2l-1 -1q-2 2 -3 2l-1 7l1 1h-1l-1 4l1 1q0 3 -3.5 10.5t-3.5 11.5l-1 -1l1 2l-2 1q-1 3 -1 5q0 4 1 12v12l2 1l-1 3 q0 3 2 4v3q-1 1 -1 7h-2l-1 2l-1 -1l-2 2l-2 -1q-2 1 -6 5q0 2 10 5q16 15 37 37h4q-1 0 5 -3.5t14 -4.5l1 -2l1 1q4 -2 5 -7l-2 -5q1 -3 -1 -5h1q-1 -4 -1 -8q0 -3 2 -7l-4 -3l-10 14l-4 -1l-1 1v-2l-3 1q-2 -4 -7 -5l-2 -3v1q-2 -3 -3 -4h-3v-3l-3 1v-54l-2 -4q2 -2 8 -4 l3 -3l1 1l1 -2l1 1l3 -3l1 1l2 -3q3 -1 6 -1q3 4 9 13v5q0 1 -7 7l-1 -1l-10 9l-2 -1l-2 -4l-3 4v6q2 8 4 18q7 2 18 8l1 -2l1 2q13 -7 19 -37l2 -6q0 -8 -2 -8zM80 264q-3 -3 -3 -12h1q-4 -6 -3 -13l-2 1v-3q0 9 -7 -36h-2v-2q0 -5 -1 -13l-1 -2q-5 -47 -5 -82h1 q-3 -13 -3 -12q-3 -6 -6 -17h1q0 -2 1.5 -8t1.5 -9v-4l-2 -2l-3 1l-9 15l1 1l-4 5v0q0 30 5 36q-1 4 1 12q-2 1 -1 2l-2 13h-1v2q-1 6 -4 17t-2 34h-2l-1 14q1 0 2 1l-2 2v9q1 2 0 3q0 14 -1 17h1v32l-2 2q1 6 0 12l1 1q0 9 -3 15v7h2q5 0 6 -3q6 5 14 5q1 -5 3 -1l2 -3l5 1 l2 -2h4l3 -2q-1 -5 6 -12l4 -1q1 -3 4 -5v-16z" />
<glyph unicode="j" horiz-adv-x="123" d="M118 433q0 -30 -18.5 -64.5t-37.5 -34.5q-9 0 -14 12q-9 20 -9 21q-5 3 -13 10q-11 11 -11 41q0 64 20 94q18 9 33 9q18 0 29 -19q-1 -3 -4 -9q-2 1 -7 10q-4 6 -8 6q-8 0 -12 -1q-33 -82 -33 -76q0 -5 4 -11v-2q0 -3 -1 -8.5t-1 -8.5q0 -12 19 -41l3 -1q5 0 15 5t15 5 q2 0 2 -1t1 -1q11 0 11 32q0 9 -2 26.5t-2 25.5q-7 1 -15 14q-23 -15 -23 -29q0 -3 3 -13t3 -13q4 0 7 -2q2 3 7 14q4 -2 4 -10q0 -7 -5.5 -13.5t-10.5 -6.5q-9 0 -15.5 11.5t-6.5 24.5q0 24 13.5 39.5t29.5 15.5q30 0 30 -51zM114 309q-1 -3 -1 -6v-5q1 -3 1 -5 q0 -12 -13 -33.5t-13 -29.5q0 -14 -2.5 -44t-2.5 -45q0 -11 5 -40l-9 -11l7 -40q-9 -9 -9 -16q0 -5 2.5 -13.5t2.5 -13.5q0 -3 -3.5 -13.5t-3.5 -15.5l-6 -56q-1 -3 -8 -29l-20 -73q-13 -41 -26 -67l-24 -33q-4 4 -7 4t-11 -4.5t-14 -4.5q-10 0 -10 -18h-2q-4 0 -11.5 8.5 t-10.5 9.5l8 22q-1 1 -3 2q-4 0 -5 -4q-7 5 -7 28v44q5 29 23 71q20 46 35 54q2 1 8 7t12 6q17 0 17 -30q0 -13 -11 -46.5t-18 -40.5q-13 3 -12 39v2q1 4 4 4q1 0 2.5 -2t2.5 -2q17 0 22 48l-1 7q-10 -3 -28 -12q-3 -2 -8 -24q-2 -7 -12 -32q-8 -20 -8 -33q0 -7 1 -22.5 t1 -23.5q4 -4 10 -3q6 -15 27 -17q7 0 12.5 20.5t12.5 20.5q2 0 4 -3q1 1 13 26q-1 1 -8 2l-2 10q2 10 6 37q2 6 6 17l9 55l5 2l2 -4q-4 -16 -4 -26q0 -1 1 -2q1 6 4 17q4 6 12 19q-2 7 -2 19q0 7 1 20.5t1 20.5q0 4 -1.5 11t-1.5 11q0 11 5 23q-4 25 -9 73q-1 21 -5 60 q8 -26 9 -28q1 0 1 1v28q0 67 -3 80q-3 4 -10 19q-5 1 -11 10q3 3 8 11l2 2q8 -4 14 -4q33 0 58 4z" />
<glyph unicode="k" horiz-adv-x="293" d="M425 -89q0 -11 -3 -13q-2 2 -5 9q-5 -3 -11 -19q-4 -2 -6 -14q-2 -8 -18 -8q-9 0 -13 -6q-3 0 -8 1h-7q-10 0 -13 -13q-3 1 -12.5 13t-11.5 12q-1 0 -4.5 -1t-5.5 -1l3 1q0 1 -1 1.5t-17 27.5l-13 22q-18 29 -52 91q-11 24 -30 78q-21 60 -25 82q-3 5 -20 62 q-14 52 -18 70v27l-5 5q-3 -9 -9 -25q-16 -3 -19 -14q-1 -14 -3 -28q-2 -7 -2 -36q0 -22 -8 -48t-8 -38q0 -1 3 -28l-4 -42q-25 0 -39 -3q-5 -1 -40 -23q-2 2 7 13.5t9 15t5 20.5q4 -2 9 -2q3 0 10 4t9 4q15 28 18 133q0 19 3 80q2 50 2 79t-7 94q-8 83 -9 98q-8 7 -28 56 q2 -3 13 0q12 4 14 2q5 4 10 4q4 0 12.5 -4.5t13.5 -4.5q17 0 36 16q8 6 12 6q-15 -55 -32 -55q-4 0 -9 -20t-5 -28q0 -5 2.5 -23t1.5 -23q-1 -6 -1 -10q0 -7 2.5 -19t2.5 -19q0 -4 -1 -13t-1 -13q0 -46 2 -72l2 -18q6 3 15 20t17 19q13 26 32 56q4 2 8 24l10 65l-2 50 q34 5 37.5 5t12 4t12.5 4t23 1.5t25 1.5l-49 -47q-2 -2 -22 -44q-20 -45 -22 -53q-7 -43 -12 -54l-25 -49l7 -34v-48q0 -12 14.5 -37t15.5 -38t5 -36q2 -4 6 -14q3 -17 16 -43q12 -22 12 -42.5t16 -40.5q21 -26 25 -35q0 -4 1 -13q15 -17 26 -52q8 -22 33 -30q9 -3 16 -3 q10 0 17.5 7l15.5 15q11 33 11 30q0 5 -14.5 31t-17 26.5t-18.5 7.5q-11 5 -18 5q-8 0 -19 -23q0 -2 14.5 -20t15.5 -18q2 0 4 2q1 -3 1 19q0 7 -2 11q-3 1 -5 3v1l6 -2q1 -5 5 -14q1 -1 19 -15l-2 -16q-3 -1 -9 -4.5t-9 -3.5q-1 0 -21.5 14t-23.5 15q-6 4 -6 37 q0 16 6 21.5t11 9.5q2 8 5 11q23 -1 41 -11q24 -14 34 -17q3 3 3 6q3 -4 21 -67q0 -7 2 -20.5t2 -20.5z" />
<glyph unicode="l" horiz-adv-x="95" d="M56 53l-12 77q4 5 4 18q0 6 -3 35q-2 21 0 28q-4 7 -8 103q-3 84 -3 129q-3 11 -3 22q0 7 2 21t1 22v7l-10 54q0 4 -9.5 19.5t-9.5 19.5q20 5 19 5q26 0 33 13q4 4 7 3q7 -2 6 -2q3 0 7.5 3t6.5 3q-5 -12 -12 -67q-6 -51 -6 -70v-3l2 6v-12q0 -28 -1 -85.5t-1 -86.5 q0 -25 1 -33t1 -65v-78q-2 0 -6 -43t-6 -43z" />
<glyph unicode="m" horiz-adv-x="247" d="M122 262q4 7 4 17q0 28 -14 69q-7 4 -11 4q-2 0 -7 -6q2 -5 2 -8v-2l-7.5 -5.5t-9.5 -15.5v-38q0 -17 -2 -48q-3 -35 -3 -49q8 -7 8 -32q0 -6 -7.5 -20.5t-8.5 -18.5q-3 0 -12 -16t-12 -16h-6q-1 3 -1 6q0 4 11 27t11 31q0 10 -6 25q2 8 2 20q0 7 -2 20t-2 20 q0 10 2 28.5t2 28.5q0 28 -14 37l1 13q1 1 -3 8.5t-4 10.5q0 -4 -13 33q0 3 -3 3.5t-10 12.5t-9 12q-3 0 48 -11q21 15 25 14q-9 -44 -9 -37q0 -4 3 -3l-1 -5q0 -4 2 -16q10 18 34 47h4q16 1 24 -29q12 -45 13 -46q9 23 19.5 47t29.5 24q2 0 6.5 2.5t6.5 2.5l1 -1 q6 -19 21 -41v-23q0 -6 7 -8q5 -16 5 -146q0 -5 -2 -18t-2 -15q0 -68 -1 -64q8 -7 0 -40l5 -47l-12 13l-18 59l-8 43v35q0 17 1.5 43t1.5 43q0 6 -2 9v20q-1 18 -1 21v2l-4 -1q-5 0 -7 4q0 4 4.5 13.5t4.5 14.5q0 4 -8 14.5t-6 21.5v6q-2 2 -7 2h-1q-1 -2 -6.5 -20.5 t-11.5 -36.5q-10 -30 -10 -44q0 -8 3 -11q-3 -10 -3 -14q0 -20 -11 -63q-6 34 -14 88z" />
<glyph unicode="n" horiz-adv-x="173" d="M28 366q1 0 11 8t11 7q3 -7 0 -24q-3 -22 -3 -31q0 -6 3 -16q4 1 6 7q4 27 25 45q2 1 15 1q9 0 13 4q9 -7 23 -35q8 -28 11 -56q2 -15 12 -57q8 -35 8 -59q0 -12 -2 -32q-1 -23 -1 -31l2 -4q2 -15 7 -27q0 -24 3 -39q4 -20 5 -27q1 -1 4.5 -32.5t4.5 -31.5q-2 1 -5 5 t-5 4t-8.5 21t-9.5 21q0 23 -28 119q-2 6 3.5 16t5.5 16q0 4 -6 19t-6 17l-2 25q-2 18 -9 16q-2 14 -7 41q-2 6 -12 12.5t-12 12.5l-14 -10l-11 -17q-17 -35 -17 -135q0 -49 -5 -76q-3 0 -7 16.5t-7 18.5q4 17 4 32q0 13 -2.5 38.5t-2.5 38.5q0 10 4 31.5t4 31.5q0 19 -4 36 q-5 22 -6 35q-2 1 -7.5 24t-7.5 23q6 0 12 -1t10 -1z" />
<glyph unicode="o" horiz-adv-x="163" d="M160 298q-1 -3 -5 -8v-2q0 5 -5 -6h1q-3 -1 -3.5 -18t-3.5 -22l1 -1q0 -3 -1.5 -8.5t-3.5 -7t-10 -29.5q-9 -33 -13 -41v-2h-3l1 -2l-2 1v-2h-2l-9 -5h2v-27v-1h-1q3 -14 -23 -44q-3 0 -6 -1l-2 2q0 -1 -1 -2l-2 2q-1 -1 -3 -1v2l-8 7v-1q0 29 -4 34q-9 4 -19 31.5 t-8 33.5l-2 3l1 5q0 22 -1 18q-1 2 -5.5 8.5t-4.5 9.5l-1 -1q-3 4 -8 13l2 1v0q-1 10 7 22l12 20v2l2 1v23q5 7 18 21l1 2q10 5 21 21v2h1l15 37l3 1l-2 1q3 4 8 12l3 1l3 -2q0 -3 -1 -2l3 1q5 -9 16 -19q17 -26 40 -66q-1 -1 2 -2v-15zM124 291q-7 30 -14 25l-1 2l-2 -1 q-2 1 -4 3l1 1q-2 2 -8 13q-3 7 -12 9q-5 -3 -14 -12q0 -2 -6 -30l-2 1l-6 -9h1v-1l-2 -2q4 -32 15 -46q0 -12 -1 -13q8 -42 8 -44v-31l17 9l1 2l2 -2v2l4 16q-1 0 -1 2q0 37 5 54l1 -1v2q2 3 5 8l1 2v1q13 26 10 30q4 10 2 10z" />
<glyph unicode="p" horiz-adv-x="203" d="M200 295l-14 -51l-2 1q-4 -1 -53 -32q-16 -7 -36 -19q-6 -10 -7 -53.5t-10 -58.5l7 -19h1l-3 -7l2 -2l-2 -1l1 -2q-1 -8 -4 -24.5t-3 -25.5q0 -17 6 -30v-2q3 -8 12 -20l-1 -22l1 -1q8 -26 7 -37v0q-2 -19 -13 -54q-14 3 -39 15l1 -1l-20 15l-2 -1l-21 8l-3 -1v1l-7 -1 q0 1 -15 16l-2 -2q1 -2 2 2l-4 4h1q1 6 6 28q4 16 3 27l-2 2q0 6 -1.5 22t-1.5 25q18 8 32 7q6 -8 21 -25v2l1 -4l5 -37h1l-3 -14l-10 -4l-22 7l2 29l8 -16l-1 -3l3 -5l7 24q0 11 -5 22l-1 -1l-9 7l1 2l-2 -2l-6 6l-5 -5l1 -15h-1l5 -21l-1 -8l-1 -3l-1 1q-1 -7 -9 -26 l5 -12l1 1q11 -6 58 -23l5 9v2q0 8 3.5 25.5t3.5 25.5l-1 8l1 1q-4 8 -19 18v-1l-3 4q10 17 15 109l2 2v28l1 -1v32q0 1 -2 42l-1 1q0 13 -9.5 37.5t-9.5 37.5q0 14 4 57q4 47 6 53l-1 6v1l-16 4l-2 2l-4 -1q-8 -8 -14 -46h1l-4 -6h-5q3 26 3 55q2 3 20 23q23 -8 68 -26h4 q13 0 51.5 -35t44.5 -50zM154 315q-4 7 -12 13l2 2q-17 13 -26 23l-1 -1q-3 1 -5 4l-1 -1l-3 3q-1 -3 -4 -7v-1l-3 -4l1 -1q-3 -6 -7 -9h-2q-2 -2 -2 -23q0 -4 -2 -55l-1 -1h2q-1 -5 -2 -16h-2l4 -3q3 2 23 26l-1 2l2 1l3 9v0l3 6q2 1 1 5l1 3v2q4 3 10 9q2 0 7 2.5t15 11.5 z" />
<glyph unicode="q" horiz-adv-x="184" d="M127 -200q6 25 6 76q0 36 -4 106.5t-4 91.5q0 13 -7 20q-8 -6 -9 -21l-7 1l-13 -13q-8 1 -21 19l-34 12q-11 38 -11 83q0 11 -6 34t-6 35q0 3 3 31q2 23 0 29q6 10 17 40l17 5l15 16q0 -1 17 5l7 -7l17 11q23 0 66 -4q-6 -5 -6.5 -9.5t-6.5 -7.5l-10 -9v-7q0 -5 -3 -16 t-3 -17q0 -71 4.5 -213.5t4.5 -213.5q0 -44 -3 -59q-5 -22 -20 -18zM115 187q-3 108 -3 112q0 9 -11.5 16.5t-21.5 7.5q-7 0 -23.5 -21.5t-16.5 -29.5q0 -16 5 -45.5t5 -34.5q0 -7 -5 -20.5t-5 -20.5q0 -12 23 -29l33 -22q19 10 19 30q0 12 -9.5 30.5t-20.5 18.5l-6 -2 q-1 -6 4 -24q3 -5 9 -17l-2 -1q-10 0 -19 20t-9 31q0 25 12 25q10 0 22.5 -11t19.5 -13z" />
<glyph unicode="r" horiz-adv-x="143" d="M79 341h-1q7 14 22 51h1q1 4 6 10h6l1 -1q7 -1 7 -12q9 -16 21 -29q-6 -21 -13 -29v2l3 -2l-7 -8h2q-7 -9 -9 -22l1 -2l-3 1v-6h-8q1 22 -11 35l-5 -1q-3 -3 -5 -2q-9 -15 -13 -39l1 -2l-2 -1q-12 -91 -12 -92q0 8 -3 -51h-1q-3 -28 -3 -33q0 -3 2 -11.5t2 -12.5h2 l-13 -41l-2 2l-1 -2l-4 7q1 9 0 15l3 42q0 4 -3 12l-1 -2l-1 25h1v16l1 13h-2q-3 6 -6 9v14q0 2 1 3l1 2q1 2 0 5q2 1 2 2l1 1v2q0 4 2 5l-2 6v0q-4 6 -4 15q0 61 -9 69q0 6 2 8v23q-1 1 -5 26l-10 10h1l-1 2l2 5l6 -2l2 1l6 -2l1 -1h1q6 -3 17 -11q5 2 15 5q1 1 4 2h2 q1 0 3 1q4 -6 2 -21q-1 0 -2.5 -10t-2.5 -11l2 -4l-2 -7l2 -1q-7 -20 -6 -37q0 3 1 10q6 39 15 51z" />
<glyph unicode="s" horiz-adv-x="167" d="M158 181l-6 -5l1 -1l-2 -9l-2 1l-1 -5h-2q-10 -13 -18 -22l-2 2q0 -5 -27 -27l2 -1h-2q-5 -3 -14 -18l-1 1q-6 -14 -15 -15v1q0 1 -2 0l-2 -1l-14 1l-1 -1q-12 1 -25 6q0 1 -3 1.5t-4 1.5l-7 9h1q7 26 10 57q13 38 19 42l27 12l6 -1l1 2l2 -2l4 2l5 -2l2 -16h2l7 -11 q-2 -6 -6 -19l1 -2q-3 -1 -3 -6t-7 -5l-1 -1h-6l-2 -2v2q-5 -3 -11 -4q-2 2 -5 1q14 13 21 31l-1 1l2 13l-3 8l-14 -2l-7 -6h1q-1 -17 -8 -39h2v-6q0 -4 -3 -11.5t-3 -11.5v-2q22 -11 18 -11q7 0 28.5 28.5t21.5 35.5q0 8 -9 56q9 15 7 21l-12 27l1 1l-8 12h1l-4 5l-6 9v1 q-20 28 -31 42v1q-8 10 -12 19l-1 -1l1 1l-10 11l-3 -1l1 2l-7 3l-2 -1q-1 1 -3 2l-1 -1l-3 3q13 13 17.5 24.5t8.5 25.5q1 3 30.5 29t32.5 26l1 -1h13l1 -2q14 0 13 1l4 -4q3 -10 6 -28l1 1q3 -8 8 -30l-3 -6l-9 -6h-2l-9 -8q-2 -13 -6 -19q-6 -1 -9 -5v-2l-9 -7l-1 1v-1 h-4q-6 4 -16 13l-1 -1q-3 0 -13 8q8 8 22 26l2 -2q-1 -3 -4 -7l1 -1q-4 -4 -9 -16q7 -3 20 -8q9 7 14 16h1l15 22l-11 39l-1 -1l-1 2l-2 -2l-1 2l-5 -1l-12 -15l-1 1l-4 -5l1 1q-16 -14 -38 -36q-1 -3 -2 -2l-11 -13q24 -34 42 -48l-1 1l48 -40v1q12 -12 17 -26l1 1l3 -7 q-5 -18 -5 -19q0 -4 3 -16l1 -1l1 -12v-1q3 -17 9 -48z" />
<glyph unicode="t" horiz-adv-x="190" d="M58 606q0 2 -12 13t-12 13q0 1 1 2q7 -6 30 -6q4 0 14 5.5t14 5.5q1 0 4 -4q8 0 23.5 10t21.5 10q0 -2 -12.5 -40t-12.5 -40q0 -14 -5.5 -41.5t-5.5 -41.5q0 -7 6 -7q68 0 83 -7q-6 -12 -50 -12q-3 0 -18 -1h-18q-9 0 -9 -91q0 -7 1 -21.5t1 -21.5q0 -10 -4 -30t-4 -30 q9 -41 9 -47q0 -3 -3 -13t-3 -13q0 -22 4.5 -27.5t26.5 -5.5q1 0 2.5 1t2.5 1v12l20 36.5t20 82.5q0 6 -4 6q-5 26 -12 26q-5 0 -12 -10q1 -9 -4 -22l-7 -20q2 -3 6 -10q3 3 9 6q2 -2 2 -8q0 -7 -13 -25h-5q-2 10 -5 19q-4 15 -7 15q-2 0 -4 -3q-1 7 -1 21q0 50 25 62 q29 -18 37 -38q5 -14 5 -55q0 -10 -9.5 -46.5t-9.5 -57.5q0 -17 -2 -25q-4 -14 -19.5 -36.5t-23.5 -22.5q-6 0 -11 8.5t-9 16.5q-1 25 -8 37t-8 17q-4 33 -4 105q0 3 1 10.5t1 11.5q0 28 -13 40q-4 24 -4 44q0 2 10 15.5t10 14.5q-12 17 -12 29q0 3 -2.5 8.5t-2.5 7.5 q0 17 -4 17q-1 0 -3.5 -1.5t-3.5 -1.5q-8 0 -24 3t-16 5l-13 46h13q9 1 9 -1l15 -28q4 0 13 3t13 3q0 13 2 40q-1 -4 -1 48z" />
<glyph unicode="u" horiz-adv-x="185" d="M120 400h-1q0 4 -6 20q-4 12 -5 16q-2 9 1 9t7 -2.5t6 -2.5q9 -1 28 3.5t27 4.5q5 0 2 -10q-4 -14 -19 -43q-9 -5 -12 -59q0 -14 -2 -20q-6 -7 -6 -51q0 -7 3 -22t3 -23q0 -7 -2.5 -20.5t-2.5 -20.5q0 -24 4 -62q0 -6 3.5 -18.5t3.5 -18.5q0 -8 -3 -15q-4 0 -6 3l-2 2 q-3 3 -5 3l-14 58q-8 34 -11 83l-1 2l-11 -43q-7 -12 -17 -36q1 -7 0 -20v-5q-9 -8 -24 -28l-2 -4q-1 -2 -3 -5q-18 1 -22 27q-2 8 -3 44v8q-7 18 -7 63q0 -7 3 23q2 13 2 56q0 8 1.5 24t1.5 24q0 27 -6 27q-2 1 -10 19t-8 21q41 -10 59 -11q-2 -7 -8 -12l-3 -2 q-5 -17 -5 -20q0 -9 2.5 -27.5t2.5 -27.5q0 -14 -6.5 -41t-6.5 -41q0 11 9 -75q1 -3 5 -5.5t5 -2.5q2 0 24 27q-1 -6 -1 13q0 8 13.5 54.5t18.5 56.5q2 1 5 4q-1 -13 -1 98z" />
<glyph unicode="v" horiz-adv-x="224" d="M176.5 341q-4.5 -12 -4.5 -19q-6 -3 -8 -33q-2 -34 -7 -42h-1q-7 1 -17 -33q5 -4 5 -11q0 8 -7 -19q-20 -79 -19 -90q-7 -13 -14.5 -51t-6.5 -53l-7 -20q-3 5 -10 4v11q0 4 4 17l-46 295q-10 67 -23 88q7 0 26.5 -9.5t26.5 -9.5q2 -3 -1 -21q-3 -22 -3 -23q0 -6 -3 -24 q-1 -9 4 -24q-3 -18 -3 -27q0 -12 6 -33q6 -24 7 -32q8 -15 19 -53q1 3 13 42t13 42q0 7 2.5 19.5t7.5 35.5q4 11 10 39q4 42 4 69q0 -1 -9 50q2 -1 16 4t15 5q12 0 27.5 7.5t27.5 7.5l-25 -30q0 -3 -7.5 -29.5t-7.5 -32t-4.5 -17.5z" />
<glyph unicode="w" horiz-adv-x="224" d="M163 381h-1v-1v1q-5 9 -10 19q-8 14 -6 16h3q11 0 15 -4t24 -7q27 -4 28 -4q3 1 5 4l4 -2l-18 -27l-15 -42q-3 -11 -3 -49q0 -4 -2.5 -12.5t-2.5 -11.5q1 -22 1 -16q0 -15 -12 -24q-1 -9 -1 -16t1.5 -20.5t1.5 -20.5q0 -9 -4 -25.5t-4 -24.5q0 -2 2 -7t2 -7q2 -23 1 -86 q-1 -6 -6 -10q-1 -6 -8 -22q-4 8 -4 17.5t-2 13.5q-3 11 -10 28q-11 32 -10 38q-7 13 -11 15q-2 8 -9 30l-4 15q-2 7 -2 9q0 7 2 12q0 2 -2 7.5t-2 8.5q0 1 2 6l-6 11q-6 -5 -16 -36.5t-11 -44.5q1 7 1 -15q0 -3 -11 -36l-12 -37q-12 0 -12 36q0 39 1 34q-5 15 -9 40l-1 5 q-5 16 -5 18q0 6 2.5 16t2.5 15q0 2 -1 7v7q-2 5 -6 16q8 18 8 28q0 5 -2.5 14t-2.5 14q-2 22 -4 68q0 2 -4 7q2 5 -7 18q-4 4 -8 12q-1 3 3 3q2 0 3 -1l2 -2q28 -3 33 -3q15 0 35 6l-16 -25q-4 -6 -11 -20q-2 -5 -2 -58q0 -4 3 -12t3 -14q0 -4 -2 -12.5t-2 -12.5t2 -12.5 t2 -13.5q0 -10 -1 -32t-1 -33v-7l29 79q3 9 10 32q0 5 -2 9q0 6 3 12q12 30 11 30l3 3q2 -2 8 -15q2 -5 8 -13q-5 -10 -5 -17q0 -4 1.5 -11t2 -11t1.5 -13q8 -22 8 -30v-11q-1 -7 -1 -11q0 -28 12 -40q5 9 12 65l5 47q3 23 5 32l-2 12q12 23 10 69l2 4l1 2q-4 9 -14 26z" />
<glyph unicode="x" horiz-adv-x="218" d="M25 83q0 1 7.5 6t8 20t11.5 42q6 8 17 25q4 14 17 45q4 6 9 19q-3 5 -6 15q-2 1 -4 4q1 4 1 7q0 4 -5.5 10.5t-6.5 9.5q-1 11 -2 33q-9 15 -21 48q-3 0 -9 2q-4 7 -9 5l-17 15q1 11 9 11q-1 0 16 -8q10 2 22 2q6 0 13 4.5t12 5.5l-9 -29v-10q5 -41 27 -98q7 2 13 37 q0 5 7 19q5 11 4 31q-4 7 -4 11q0 7 10 15l2 15q0 8 1 10v-1q-2 -1 -5 2l1 8q2 2 1 13.5t1 11.5q6 0 12.5 -10.5t10.5 -9.5l6 2l6 -4q26 2 18 2q10 0 31 1q-12 -6 -21 -13q-21 -17 -26 -34q-5 -11 -11.5 -27.5t-16.5 -39.5q-3 -9 -8 -26q-5 -6 -12 -21q1 -1 1 -2 q0 -2 -3.5 -10t-4.5 -9q4 -5 10 -15q-1 -4 -1 -8t12 -32q1 -7 2 -20q10 -14 22 -47q12 -4 25 -34q1 0 -16 8q-6 -2 -20 -4l-2 1v0q-6 0 -12 -4t-11 -5q1 14 7 29l1 10q-5 41 -27 98q-7 -2 -13 -37q-1 -4 -7 -19q-5 -11 -5 -31q4 -7 4 -11q0 -6 -9 -14l-3 -16q0 -14 1 -44 q-5 0 -11.5 10.5t-10.5 9.5q-7 -2 -6 -2q-2 0 -4 2q-6 5 -45 5q3 0 12.5 7.5t12.5 7.5z" />
<glyph unicode="y" horiz-adv-x="189" d="M-21 -80l-22 -23l-3 5q-5 -9 -30 -20q-23 15 -23 31q0 18 29 35q-9 -10 -18 -31l7 -11l8 5l6 -5q13 13 34 41q-5 10 -10 38l-10 8q-4 -17 -18 -24l-12 11q-8 0 -19 -15q-14 -17 -22 -20q9 -2 1 -29l3 -5q3 -14 -12 -33l45 -49q6 16 18 16q5 0 10 -3l25 12q2 -3 4 -3 q26 0 82 119l-1 4q8 45 32 93q-4 6 -7.5 24t-10.5 26l2 15q0 17 -9 46t-11 42q-9 10 -24 59l-20 64l28 7l5 -4q9 0 25 6.5t24 6.5q-18 -40 -18 -94q0 -67 29 -157q38 138 38 159q0 27 8 33q9 31 0 119q10 0 17.5 -17t15.5 -17q4 0 8 2l13 -7q23 7 39 -3l9 4q-19 -22 -38 -38 q-6 -6 -20 -38t-18 -46q-10 -42 -29 -81.5t-36 -110.5q-19 -76 -36 -116q-14 -19 -30 -55q0 -9 -19 -24l-3 3l-42 -52l-7 4l-18 -8l-6 5q-12 -7 -21 -7q-5 0 -14.5 3t-16.5 4l-7 -17q-3 10 -22.5 25t-23.5 23q-4 11 7 61h1l16 39q12 22 34 26q7 10 8.5 11t13.5 4l6 -3 q15 19 54 19q5 -11 25 -23l1 -16q1 -12 -15 -29l-3 -15z" />
<glyph unicode="z" horiz-adv-x="207" d="M178 72q-14 6 -15 6q-1 -1 -3 -2l-3 -2q-2 -1 -3 -2q-16 8 -17 8l-13.5 -5.5t-24.5 -5.5q-10 0 -17.5 9t-20.5 9q-2 0 -6 -4l-3 -3q-2 -2 -5 -2.5t-11 -2t-12 -1.5q-15 0 -15 18l13 35q3 2 8 3h4q2 0 3 1q32 60 40 120q2 5 5 5q2 0 5 -4l1 2q22 44 22 77q0 10 -1 13 q-6 21 -26 21q-21 0 -22 -8q-1 -11 -7 -51q-10 1 -12 13q1 6 0 8q-1 4 -1 9q0 12 -4 31l-5 31q12 11 18 11q9 0 18 -9.5t16 -9.5l14 6q24 -8 21 -8q2 0 6 2l4 1q2 1 5 2q10 -5 9 -5q5 0 21 5q8 -21 8 -27t-5 -15q-7 3 -13 3q-7 0 -16 -27q-8 -23 -8 -32q-21 -54 -60 -165h1 q6 -1 18 -4h2q5 -2 5 -5q3 -8 23 -8q16 0 37 13v5q0 8 8 19q-4 10 -4 16l9 24h9q8 0 8 -13v-11q-1 -7 -1 -9l1 -3.5t1 -25.5q0 -11 11 -35v-7q-6 -6 -20 -14z" />
<glyph unicode="|" horiz-adv-x="105" d="M35 859h34v-924h-34v924z" />
<glyph unicode="~" horiz-adv-x="297" d="M40 572l89 89l32 -48l95 48l-96 -123l-39 36z" />
<glyph unicode="&#xb6;" horiz-adv-x="546" d="M176 249l2 -7q5 -14 5 -28q0 -22 -11 -38t-25 -16q-19 0 -29 28q-19 49 -38 117q-11 27 -11 46q0 29 28 44q38 19 95 44q5 2 11 2q14 0 23.5 -17t9.5 -39q0 -34 -20 -47q37 -23 69 -23q62 0 95 44q28 37 28 95q0 56 -25 99t-63 43q-17 0 -44 -11.5t-36 -11.5 q-15 0 -24 17t-9 39q0 42 28 51l42 16q25 8 43 8q71 0 116 -78q41 -73 41 -172q0 -102 -45 -170q-52 -77 -147 -77q-48 0 -109 42z" />
<glyph unicode="&#xd2;" horiz-adv-x="448" d="M416 425q1 -26 -11 -205q-12 -182 -12 -204q0 -8 5 -26t5 -27q0 -6 -1 -7q-43 22 -45 22q-3 0 -13.5 -6.5t-15.5 -6.5q-26 0 -76.5 9.5t-76.5 9.5t-51 -11q-3 -1 -9.5 -9t-9.5 -8q-5 0 -21.5 15.5t-16.5 22.5q0 16 16 18q21 3 26 9q12 17 22 63q8 41 8 72q0 5 -3 15.5 t-4 15.5q-7 83 -7 147q0 19 4.5 45.5t4.5 33.5v66l-6 -6q0 9 1 27v27v128q0 38 -23 38q-9 0 -16 -14t-14 -14q-8 0 -23 12q-10 11 -21 21v11q0 1 14 45q36 -7 45 -7q20 0 40.5 12.5t24.5 12.5t16 -9t16 -9q3 0 7 3.5t6 3.5q5 0 15.5 -1.5t15.5 -1.5q4 0 16.5 8.5t16.5 8.5 q8 0 33 -33v-2q1 -11 -6 -16.5t-31 -16.5q-17 -8 -30 -25q-5 -12 -18 -31q4 -9 4 -17q0 -3 -11.5 -18t-13.5 -20q2 -9 5 -16q-1 -10 -4.5 -33t-3.5 -36t7 -27v-10q3 -47 -22 -80l-1 -10q0 -13 3.5 -35t3.5 -33q0 -15 -1 -68v-68q1 -5 -1 -14.5t-2 -14.5q0 -44 3.5 -57 t23.5 -41q11 -2 47.5 -19.5t40.5 -17.5q7 0 19.5 2t18.5 2q-1 0 22 -4q4 66 16 215q1 9 4 11.5t4 11.5q8 73 16 168q6 7 14 22l11 -3v-16z" />
<glyph unicode="&#xd4;" horiz-adv-x="428" d="M383 706l-20 -16q-13 -2 -25 -3q-16 -4 -21 -18q4 -39 12 -88q0 -10 -4 -35q-4 -21 -4 -34q0 6 7 -55l-6 -35q-3 -11 -15 -28l-1 -9q4 -23 7 -69v-37q1 -28 1 -38q0 -27 -10 -88q-10 -66 -19 -81l-45 -79q-34 -51 -64 -51q-26 0 -56 30q-2 -1 -5 -1q-16 0 -42.5 53.5 t-26.5 80.5q0 7 5 12t6 11q12 83 18 103q11 36 46 78q26 31 55 31q28 0 49.5 -25t21.5 -66q0 -30 -15 -54l-29.5 -47t-32.5 -23q-14 0 -23 17l38 61q6 -15 22 -13q0 38 -18 62t-44 24q-16 0 -31 -13q-18 -48 -18 -99q0 -52 21.5 -90.5t54.5 -38.5q14 0 28 10l5 -1 q10 0 24 14l22 24q11 30 19 60l-10 192q0 19 4.5 45.5t4.5 34.5v66l-6 -6q0 5 1 27q1 18 0 27l-10 127q-3 38 -22 38q-9 0 -31 8.5t-28 8.5q-1 0 -47 -7.5t-63 -7.5q-9 0 -11 2l17 26q2 4 -1.5 14.5t-1.5 15.5q33 -6 152 -6q19 0 38 12.5t24 12.5q3 0 15 -9t16 -9q5 0 12 7 q16 -12 52 -18z" />
<glyph unicode="&#xe0;" horiz-adv-x="194" d="M200 69q0 -4 -6 -4l-2 1l-2 -2q-8 0 -14 8h-3l-6 6q0 -3 -6 3l-8 10v2q-7 17 -12 17q-1 0 -5.5 3t-5.5 4q-2 7 -2 21l-2 4q-7 -13 -22 -33q-40 -34 -66 -34q-2 0 -11 16.5t-11 16.5t-1.5 -1t-1.5 -1q-8 0 -8 22q0 -3 15 53q0 4 -2 7q12 21 12 12h2l23 37q7 0 14 8 q2 5 3 10q5 6 6 8.5t1 6.5q-1 6 -1 11v1q10 7 30 24q-4 22 -19 61h-7q-16 0 -26 -12q-1 -11 -5 -31q3 -5 12 -6q0 -1 -5 -17h-4q-8 0 -24 16q-4 0 -6 2v10q8 3 12.5 14t8.5 22q3 7 17 17t20 10q14 0 30 -15q9 -16 17 -32q1 -5 5 -36q6 -10 6 -22q0 -5 6.5 -20.5t6.5 -29.5 q0 -6 2 -17.5t2 -17.5t-2.5 -18t-2.5 -19l7 -39l9 -10v-14q2 -3 3 -6q19 -23 27 -23zM118 157q0 7 -4.5 17t-8.5 10t-10 -10q3 -3 7 -11q-4 -19 -22 -19q-4 0 -4.5 3t-2 8t-1.5 8q0 22 17 35l29 16v21q0 8 -7 19t-12 11q-4 0 -7 -8q-5 -11 -5 -12q-8 -7 -22 -22 q-8 -53 -8 -41q0 -2 3 -12q-13 -10 -13 -29q0 -5 9 -25q20 -10 17 -10q8 0 26.5 20t18.5 31zM65 503q9 -5 25 -19q3 -3 11 -9l45 -40q-34 14 -74 33q-16 1 -43 7z" />
<glyph unicode="&#xe1;" horiz-adv-x="194" d="M200 69q0 -4 -6 -4l-2 1l-2 -2q-8 0 -14 8h-3l-6 6q0 -3 -6 3l-8 10v2q-7 17 -12 17q-1 0 -5.5 3t-5.5 4q-2 7 -2 21l-2 4q-7 -13 -22 -33q-40 -34 -66 -34q-2 0 -11 16.5t-11 16.5t-1.5 -1t-1.5 -1q-8 0 -8 22q0 -3 15 53q0 4 -2 7q12 21 12 12h2l23 37q7 0 14 8 q2 5 3 10q5 6 6 8.5t1 6.5q-1 6 -1 11v1q10 7 30 24q-4 22 -19 61h-7q-16 0 -26 -12q-1 -11 -5 -31q3 -5 12 -6q0 -1 -5 -17h-4q-8 0 -24 16q-4 0 -6 2v10q8 3 12.5 14t8.5 22q3 7 17 17t20 10q14 0 30 -15q9 -16 17 -32q1 -5 5 -36q6 -10 6 -22q0 -5 6.5 -20.5t6.5 -29.5 q0 -6 2 -17.5t2 -17.5t-2.5 -18t-2.5 -19l7 -39l9 -10v-14q2 -3 3 -6q19 -23 27 -23zM118 157q0 7 -4.5 17t-8.5 10t-10 -10q3 -3 7 -11q-4 -19 -22 -19q-4 0 -4.5 3t-2 8t-1.5 8q0 22 17 35l29 16v21q0 8 -7 19t-12 11q-4 0 -7 -8q-5 -11 -5 -12q-8 -7 -22 -22 q-8 -53 -8 -41q0 -2 3 -12q-13 -10 -13 -29q0 -5 9 -25q20 -10 17 -10q8 0 26.5 20t18.5 31zM128 519l8.5 -10.5t7.5 -11.5l-101 -96q-2 -1 -2 -2q-4 0 25 53v0q-1 -1 -3 -5l23 18l9 26q8 13 17 18q13 8 16 10z" />
<glyph unicode="&#xe2;" horiz-adv-x="194" d="M200 69q0 -4 -6 -4l-2 1l-2 -2q-8 0 -14 8h-3l-6 6q0 -3 -6 3l-8 10v2q-7 17 -12 17q-1 0 -5.5 3t-5.5 4q-2 7 -2 21l-2 4q-7 -13 -22 -33q-40 -34 -66 -34q-2 0 -11 16.5t-11 16.5t-1.5 -1t-1.5 -1q-8 0 -8 22q0 -3 15 53q0 4 -2 7q12 21 12 12h2l23 37q7 0 14 8 q2 5 3 10q5 6 6 8.5t1 6.5q-1 6 -1 11v1q10 7 30 24q-4 22 -19 61h-7q-16 0 -26 -12q-1 -11 -5 -31q3 -5 12 -6q0 -1 -5 -17h-4q-8 0 -24 16q-4 0 -6 2v10q8 3 12.5 14t8.5 22q3 7 17 17t20 10q14 0 30 -15q9 -16 17 -32q1 -5 5 -36q6 -10 6 -22q0 -5 6.5 -20.5t6.5 -29.5 q0 -6 2 -17.5t2 -17.5t-2.5 -18t-2.5 -19l7 -39l9 -10v-14q2 -3 3 -6q19 -23 27 -23zM118 157q0 7 -4.5 17t-8.5 10t-10 -10q3 -3 7 -11q-4 -19 -22 -19q-4 0 -4.5 3t-2 8t-1.5 8q0 22 17 35l29 16v21q0 8 -7 19t-12 11q-4 0 -7 -8q-5 -11 -5 -12q-8 -7 -22 -22 q-8 -53 -8 -41q0 -2 3 -12q-13 -10 -13 -29q0 -5 9 -25q20 -10 17 -10q8 0 26.5 20t18.5 31zM77 511q9 -5 25 -19q3 -3 11 -9l45 -40q-34 14 -74 33q-1 1 -33.5 -17t-38.5 -15z" />
<glyph unicode="&#xe3;" horiz-adv-x="194" d="M200 69q0 -4 -6 -4l-2 1l-2 -2q-8 0 -14 8h-3l-6 6q0 -3 -6 3l-8 10v2q-7 17 -12 17q-1 0 -5.5 3t-5.5 4q-2 7 -2 21l-2 4q-7 -13 -22 -33q-40 -34 -66 -34q-2 0 -11 16.5t-11 16.5t-1.5 -1t-1.5 -1q-8 0 -8 22q0 -3 15 53q0 4 -2 7q12 21 12 12h2l23 37q7 0 14 8 q2 5 3 10q5 6 6 8.5t1 6.5q-1 6 -1 11v1q10 7 30 24q-4 22 -19 61h-7q-16 0 -26 -12q-1 -11 -5 -31q3 -5 12 -6q0 -1 -5 -17h-4q-8 0 -24 16q-4 0 -6 2v10q8 3 12.5 14t8.5 22q3 7 17 17t20 10q14 0 30 -15q9 -16 17 -32q1 -5 5 -36q6 -10 6 -22q0 -5 6.5 -20.5t6.5 -29.5 q0 -6 2 -17.5t2 -17.5t-2.5 -18t-2.5 -19l7 -39l9 -10v-14q2 -3 3 -6q19 -23 27 -23zM118 157q0 7 -4.5 17t-8.5 10t-10 -10q3 -3 7 -11q-4 -19 -22 -19q-4 0 -4.5 3t-2 8t-1.5 8q0 22 17 35l29 16v21q0 8 -7 19t-12 11q-4 0 -7 -8q-5 -11 -5 -12q-8 -7 -22 -22 q-8 -53 -8 -41q0 -2 3 -12q-13 -10 -13 -29q0 -5 9 -25q20 -10 17 -10q8 0 26.5 20t18.5 31z" />
<glyph unicode="&#xe4;" horiz-adv-x="194" d="M200 69q0 -4 -6 -4l-2 1l-2 -2q-8 0 -14 8h-3l-6 6q0 -3 -6 3l-8 10v2q-7 17 -12 17q-1 0 -5.5 3t-5.5 4q-2 7 -2 21l-2 4q-7 -13 -22 -33q-40 -34 -66 -34q-2 0 -11 16.5t-11 16.5t-1.5 -1t-1.5 -1q-8 0 -8 22q0 -3 15 53q0 4 -2 7q12 21 12 12h2l23 37q7 0 14 8 q2 5 3 10q5 6 6 8.5t1 6.5q-1 6 -1 11v1q10 7 30 24q-4 22 -19 61h-7q-16 0 -26 -12q-1 -11 -5 -31q3 -5 12 -6q0 -1 -5 -17h-4q-8 0 -24 16q-4 0 -6 2v10q8 3 12.5 14t8.5 22q3 7 17 17t20 10q14 0 30 -15q9 -16 17 -32q1 -5 5 -36q6 -10 6 -22q0 -5 6.5 -20.5t6.5 -29.5 q0 -6 2 -17.5t2 -17.5t-2.5 -18t-2.5 -19l7 -39l9 -10v-14q2 -3 3 -6q19 -23 27 -23zM118 157q0 7 -4.5 17t-8.5 10t-10 -10q3 -3 7 -11q-4 -19 -22 -19q-4 0 -4.5 3t-2 8t-1.5 8q0 22 17 35l29 16v21q0 8 -7 19t-12 11q-4 0 -7 -8q-5 -11 -5 -12q-8 -7 -22 -22 q-8 -53 -8 -41q0 -2 3 -12q-13 -10 -13 -29q0 -5 9 -25q20 -10 17 -10q8 0 26.5 20t18.5 31zM23 474q0 34 22 34q21 0 21 -34q0 -35 -21 -35q-22 0 -22 35zM91 485q0 34 21 34q22 0 22 -34q0 -35 -22 -35q-21 0 -21 35z" />
<glyph unicode="&#xe5;" horiz-adv-x="194" d="M200 69q0 -4 -6 -4l-2 1l-2 -2q-8 0 -14 8h-3l-6 6q0 -3 -6 3l-8 10v2q-7 17 -12 17q-1 0 -5.5 3t-5.5 4q-2 7 -2 21l-2 4q-7 -13 -22 -33q-40 -34 -66 -34q-2 0 -11 16.5t-11 16.5t-1.5 -1t-1.5 -1q-8 0 -8 22q0 -3 15 53q0 4 -2 7q12 21 12 12h2l23 37q7 0 14 8 q2 5 3 10q5 6 6 8.5t1 6.5q-1 6 -1 11v1q10 7 30 24q-4 22 -19 61h-7q-16 0 -26 -12q-1 -11 -5 -31q3 -5 12 -6q0 -1 -5 -17h-4q-8 0 -24 16q-4 0 -6 2v10q8 3 12.5 14t8.5 22q3 7 17 17t20 10q14 0 30 -15q9 -16 17 -32q1 -5 5 -36q6 -10 6 -22q0 -5 6.5 -20.5t6.5 -29.5 q0 -6 2 -17.5t2 -17.5t-2.5 -18t-2.5 -19l7 -39l9 -10v-14q2 -3 3 -6q19 -23 27 -23zM118 157q0 7 -4.5 17t-8.5 10t-10 -10q3 -3 7 -11q-4 -19 -22 -19q-4 0 -4.5 3t-2 8t-1.5 8q0 22 17 35l29 16v21q0 8 -7 19t-12 11q-4 0 -7 -8q-5 -11 -5 -12q-8 -7 -22 -22 q-8 -53 -8 -41q0 -2 3 -12q-13 -10 -13 -29q0 -5 9 -25q20 -10 17 -10q8 0 26.5 20t18.5 31z" />
<glyph unicode="&#xe7;" horiz-adv-x="151" d="M66 81l13 31q-7 6 -16 15l-3 -5h-5q-11 15 -28 49q0 10 -8 26q-2 8 -2 46q0 12 -7 16v9q0 2 4.5 14.5t2.5 22.5q8 49 34 70q8 3 23 10q1 0 7.5 6t7.5 6q2 0 6.5 -5.5t5.5 -6.5q20 -15 20 -45q0 -49 -16 -49q-5 0 -9 7q0 10 13 11q5 11 5 22l-8 20q-8 1 -22 7 q-5 -3 -10 -23q-3 -2 -18 -22.5t-15 -23.5q0 -18 12 -33q1 -8 1 -12q0 -12 -4 -21v-4q-1 -12 9 -27q9 -10 17 -21v-2q-1 -19 20 -19h1q2 -4 3 -4q6 0 10 12.5t4 21.5q2 2 9 3q4 7 8 15t8 8q1 -1 2 -6q0 3 -16 -36q0 -4 -2 -12.5t-15.5 -28.5t-18.5 -20l23 -48l-11 -37h-35 l-17 17l20 9l14 -6l3 17z" />
<glyph unicode="&#xe8;" horiz-adv-x="144" d="M134 301l-4 -4l-1 2l-11 -1q-1 2 -5 3v-1q-2 1 -6 2h-2v1q-2 0 -5 1h-3v2l-5 1q-1 0 -6.5 3t-8.5 4l-2 -1q-2 3 -4 3q-4 0 -4 -5l2 -2q0 -4 -2 -12q-1 -11 -1 -29q1 -26 -7 -35l1 -4l-2 -2v-33q12 -10 14 -30q2 -23 11 -33l1 1h2q-1 0 -1 2h1q7 11 22 37l-1 3q3 5 3 12v0 q-1 9 3 14v13q0 29 -17 29l-1 1l-2 -4q0 -10 3 -24l-1 -3l1 1q1 -4 10 -10v-3l-2 -3v-1l-2 -4l2 -2q-2 -4 -3 -9q-1 2 -4 0q-3 0 -7.5 4.5l-5.5 5.5q-2 10 -6 32q9 15 5 29l3 4h4q1 0 5 -2t5 -2t2 -1l1 1l3 -3l1 1q0 -1 1 -3l1 1l3 -2h2l8 -16l-1 -2q1 0 2 -2l-1 -1 q5 -9 3 -32l-1 -3v-9l-2 -3q0 -7 -6.5 -10t-6.5 -10q-6 4 -6 -11l-10 -21q-8 -6 -8 -21l-1 -2h-5q-8 32 -27 32l1 1h-3q-17 40 -40 58q3 9 1 14l11 53l2 11q-7 5 -7 14q0 16 20 45l29 36l1 -1q10 19 18 25q5 -1 13 -6h2v-1l25 -33q1 -5 0 -12q-1 -9 -1 -12q0 -7 5 -16t5 -10 zM105 361q-2 8 -4 8l-2 -1l1 1q-3 3 -8 10v-1h-1q-2 0 -1 1q-2 -5 -5 -16h-1v-2q-2 -6 -5 -14h1q-2 -6 -8 -18q5 -2 10 -2l6 1q3 -2 7 -2l2 -2q1 0 2.5 1l1.5 1q0 5 -1 7q0 7 3 20q0 2 1 4.5t1 3.5zM65 503q9 -5 25 -19q3 -3 11 -9l45 -40q-34 14 -74 33q-16 1 -43 7z" />
<glyph unicode="&#xe9;" horiz-adv-x="144" d="M134 301l-4 -4l-1 2l-11 -1q-1 2 -5 3v-1q-2 1 -6 2h-2v1q-2 0 -5 1h-3v2l-5 1q-1 0 -6.5 3t-8.5 4l-2 -1q-2 3 -4 3q-4 0 -4 -5l2 -2q0 -4 -2 -12q-1 -11 -1 -29q1 -26 -7 -35l1 -4l-2 -2v-33q12 -10 14 -30q2 -23 11 -33l1 1h2q-1 0 -1 2h1q7 11 22 37l-1 3q3 5 3 12v0 q-1 9 3 14v13q0 29 -17 29l-1 1l-2 -4q0 -10 3 -24l-1 -3l1 1q1 -4 10 -10v-3l-2 -3v-1l-2 -4l2 -2q-2 -4 -3 -9q-1 2 -4 0q-3 0 -7.5 4.5l-5.5 5.5q-2 10 -6 32q9 15 5 29l3 4h4q1 0 5 -2t5 -2t2 -1l1 1l3 -3l1 1q0 -1 1 -3l1 1l3 -2h2l8 -16l-1 -2q1 0 2 -2l-1 -1 q5 -9 3 -32l-1 -3v-9l-2 -3q0 -7 -6.5 -10t-6.5 -10q-6 4 -6 -11l-10 -21q-8 -6 -8 -21l-1 -2h-5q-8 32 -27 32l1 1h-3q-17 40 -40 58q3 9 1 14l11 53l2 11q-7 5 -7 14q0 16 20 45l29 36l1 -1q10 19 18 25q5 -1 13 -6h2v-1l25 -33q1 -5 0 -12q-1 -9 -1 -12q0 -7 5 -16t5 -10 zM105 361q-2 8 -4 8l-2 -1l1 1q-3 3 -8 10v-1h-1q-2 0 -1 1q-2 -5 -5 -16h-1v-2q-2 -6 -5 -14h1q-2 -6 -8 -18q5 -2 10 -2l6 1q3 -2 7 -2l2 -2q1 0 2.5 1l1.5 1q0 5 -1 7q0 7 3 20q0 2 1 4.5t1 3.5zM128 519l8.5 -10.5t7.5 -11.5l-101 -96q-2 -1 -2 -2q-4 0 25 53v0 q-1 -1 -3 -5l23 18l9 26q8 13 17 18q13 8 16 10z" />
<glyph unicode="&#xea;" horiz-adv-x="144" d="M134 301l-4 -4l-1 2l-11 -1q-1 2 -5 3v-1q-2 1 -6 2h-2v1q-2 0 -5 1h-3v2l-5 1q-1 0 -6.5 3t-8.5 4l-2 -1q-2 3 -4 3q-4 0 -4 -5l2 -2q0 -4 -2 -12q-1 -11 -1 -29q1 -26 -7 -35l1 -4l-2 -2v-33q12 -10 14 -30q2 -23 11 -33l1 1h2q-1 0 -1 2h1q7 11 22 37l-1 3q3 5 3 12v0 q-1 9 3 14v13q0 29 -17 29l-1 1l-2 -4q0 -10 3 -24l-1 -3l1 1q1 -4 10 -10v-3l-2 -3v-1l-2 -4l2 -2q-2 -4 -3 -9q-1 2 -4 0q-3 0 -7.5 4.5l-5.5 5.5q-2 10 -6 32q9 15 5 29l3 4h4q1 0 5 -2t5 -2t2 -1l1 1l3 -3l1 1q0 -1 1 -3l1 1l3 -2h2l8 -16l-1 -2q1 0 2 -2l-1 -1 q5 -9 3 -32l-1 -3v-9l-2 -3q0 -7 -6.5 -10t-6.5 -10q-6 4 -6 -11l-10 -21q-8 -6 -8 -21l-1 -2h-5q-8 32 -27 32l1 1h-3q-17 40 -40 58q3 9 1 14l11 53l2 11q-7 5 -7 14q0 16 20 45l29 36l1 -1q10 19 18 25q5 -1 13 -6h2v-1l25 -33q1 -5 0 -12q-1 -9 -1 -12q0 -7 5 -16t5 -10 zM105 361q-2 8 -4 8l-2 -1l1 1q-3 3 -8 10v-1h-1q-2 0 -1 1q-2 -5 -5 -16h-1v-2q-2 -6 -5 -14h1q-2 -6 -8 -18q5 -2 10 -2l6 1q3 -2 7 -2l2 -2q1 0 2.5 1l1.5 1q0 5 -1 7q0 7 3 20q0 2 1 4.5t1 3.5zM77 511q9 -5 25 -19q3 -3 11 -9l45 -40q-34 14 -74 33q-1 1 -33.5 -17 t-38.5 -15z" />
<glyph unicode="&#xeb;" horiz-adv-x="144" d="M134 301l-4 -4l-1 2l-11 -1q-1 2 -5 3v-1q-2 1 -6 2h-2v1q-2 0 -5 1h-3v2l-5 1q-1 0 -6.5 3t-8.5 4l-2 -1q-2 3 -4 3q-4 0 -4 -5l2 -2q0 -4 -2 -12q-1 -11 -1 -29q1 -26 -7 -35l1 -4l-2 -2v-33q12 -10 14 -30q2 -23 11 -33l1 1h2q-1 0 -1 2h1q7 11 22 37l-1 3q3 5 3 12v0 q-1 9 3 14v13q0 29 -17 29l-1 1l-2 -4q0 -10 3 -24l-1 -3l1 1q1 -4 10 -10v-3l-2 -3v-1l-2 -4l2 -2q-2 -4 -3 -9q-1 2 -4 0q-3 0 -7.5 4.5l-5.5 5.5q-2 10 -6 32q9 15 5 29l3 4h4q1 0 5 -2t5 -2t2 -1l1 1l3 -3l1 1q0 -1 1 -3l1 1l3 -2h2l8 -16l-1 -2q1 0 2 -2l-1 -1 q5 -9 3 -32l-1 -3v-9l-2 -3q0 -7 -6.5 -10t-6.5 -10q-6 4 -6 -11l-10 -21q-8 -6 -8 -21l-1 -2h-5q-8 32 -27 32l1 1h-3q-17 40 -40 58q3 9 1 14l11 53l2 11q-7 5 -7 14q0 16 20 45l29 36l1 -1q10 19 18 25q5 -1 13 -6h2v-1l25 -33q1 -5 0 -12q-1 -9 -1 -12q0 -7 5 -16t5 -10 zM105 361q-2 8 -4 8l-2 -1l1 1q-3 3 -8 10v-1h-1q-2 0 -1 1q-2 -5 -5 -16h-1v-2q-2 -6 -5 -14h1q-2 -6 -8 -18q5 -2 10 -2l6 1q3 -2 7 -2l2 -2q1 0 2.5 1l1.5 1q0 5 -1 7q0 7 3 20q0 2 1 4.5t1 3.5zM23 474q0 34 22 34q21 0 21 -34q0 -35 -21 -35q-22 0 -22 35zM91 485 q0 34 21 34q22 0 22 -34q0 -35 -22 -35q-21 0 -21 35z" />
<glyph unicode="&#xf1;" horiz-adv-x="173" d="M28 366q1 0 11 8t11 7q3 -7 0 -24q-3 -22 -3 -31q0 -6 3 -16q4 1 6 7q4 27 25 45q2 1 15 1q9 0 13 4q9 -7 23 -35q8 -28 11 -56q2 -15 12 -57q8 -35 8 -59q0 -12 -2 -32q-1 -23 -1 -31l2 -4q2 -15 7 -27q0 -24 3 -39q4 -20 5 -27q1 -1 4.5 -32.5t4.5 -31.5q-2 1 -5 5 t-5 4t-8.5 21t-9.5 21q0 23 -28 119q-1 3 -1 46q0 13 -1.5 23.5t-2.5 23.5q-2 18 -9 16q-2 14 -7 41q-2 6 -12 12.5t-12 12.5l-14 -10l-11 -17q-17 -35 -17 -135q0 -49 -5 -76q-3 0 -7 16.5t-7 18.5q4 17 4 32q0 13 -2.5 38.5t-2.5 38.5q0 10 4 31.5t4 31.5q0 19 -4 36 q-5 22 -6 35q-2 1 -7.5 24t-7.5 23q6 0 12 -1t10 -1zM17 452l35 31l31 -28l37 -9l28 34l-22 9l-28 -12l-46 31l-52 -34z" />
<glyph unicode="&#xf2;" horiz-adv-x="163" d="M160 298q-1 -3 -5 -8v-2q0 5 -5 -6h1q-3 -1 -3.5 -18t-3.5 -22l1 -1q0 -3 -1.5 -8.5t-3.5 -7t-10 -29.5q-9 -33 -13 -41v-2h-3l1 -2l-2 1v-2h-2l-9 -5h2v-27v-1h-1q3 -14 -23 -44q-3 0 -6 -1l-2 2q0 -1 -1 -2l-2 2q-1 -1 -3 -1v2l-8 7v-1q0 29 -4 34q-9 4 -19 31.5 t-8 33.5l-2 3l1 5q0 22 -1 18q-1 2 -5.5 8.5t-4.5 9.5l-1 -1q-3 4 -8 13l2 1v0q-1 10 7 22l12 20v2l2 1v23q5 7 18 21l1 2q10 5 21 21v2h1l15 37l3 1l-2 1q3 4 8 12l3 1l3 -2q0 -3 -1 -2l3 1q5 -9 16 -19q17 -26 40 -66q-1 -1 2 -2v-15zM124 291q-7 30 -14 25l-1 2l-2 -1 q-2 1 -4 3l1 1q-2 2 -8 13q-3 7 -12 9q-5 -3 -14 -12q0 -2 -6 -30l-2 1l-6 -9h1v-1l-2 -2q4 -32 15 -46q0 -12 -1 -13q8 -42 8 -44v-31l17 9l1 2l2 -2v2l4 16q-1 0 -1 2q0 37 5 54l1 -1v2q2 3 5 8l1 2v1q13 26 10 30q4 10 2 10zM65 503q9 -5 25 -19q3 -3 11 -9l45 -40 q-34 14 -74 33q-16 1 -43 7z" />
<glyph unicode="&#xf3;" horiz-adv-x="163" d="M160 298q-1 -3 -5 -8v-2q0 5 -5 -6h1q-3 -1 -3.5 -18t-3.5 -22l1 -1q0 -3 -1.5 -8.5t-3.5 -7t-10 -29.5q-9 -33 -13 -41v-2h-3l1 -2l-2 1v-2h-2l-9 -5h2v-27v-1h-1q3 -14 -23 -44q-3 0 -6 -1l-2 2q0 -1 -1 -2l-2 2q-1 -1 -3 -1v2l-8 7v-1q0 29 -4 34q-9 4 -19 31.5 t-8 33.5l-2 3l1 5q0 22 -1 18q-1 2 -5.5 8.5t-4.5 9.5l-1 -1q-3 4 -8 13l2 1v0q-1 10 7 22l12 20v2l2 1v23q5 7 18 21l1 2q10 5 21 21v2h1l15 37l3 1l-2 1q3 4 8 12l3 1l3 -2q0 -3 -1 -2l3 1q5 -9 16 -19q17 -26 40 -66q-1 -1 2 -2v-15zM124 291q-7 30 -14 25l-1 2l-2 -1 q-2 1 -4 3l1 1q-2 2 -8 13q-3 7 -12 9q-5 -3 -14 -12q0 -2 -6 -30l-2 1l-6 -9h1v-1l-2 -2q4 -32 15 -46q0 -12 -1 -13q8 -42 8 -44v-31l17 9l1 2l2 -2v2l4 16q-1 0 -1 2q0 37 5 54l1 -1v2q2 3 5 8l1 2v1q13 26 10 30q4 10 2 10zM128 519l8.5 -10.5t7.5 -11.5l-101 -96 q-2 -1 -2 -2q-4 0 25 53v0q-1 -1 -3 -5l23 18l9 26q8 13 17 18q13 8 16 10z" />
<glyph unicode="&#xf4;" horiz-adv-x="163" d="M160 298q-1 -3 -5 -8v-2q0 5 -5 -6h1q-3 -1 -3.5 -18t-3.5 -22l1 -1q0 -3 -1.5 -8.5t-3.5 -7t-10 -29.5q-9 -33 -13 -41v-2h-3l1 -2l-2 1v-2h-2l-9 -5h2v-27v-1h-1q3 -14 -23 -44q-3 0 -6 -1l-2 2q0 -1 -1 -2l-2 2q-1 -1 -3 -1v2l-8 7v-1q0 29 -4 34q-9 4 -19 31.5 t-8 33.5l-2 3l1 5q0 22 -1 18q-1 2 -5.5 8.5t-4.5 9.5l-1 -1q-3 4 -8 13l2 1v0q-1 10 7 22l12 20v2l2 1v23q5 7 18 21l1 2q10 5 21 21v2h1l15 37l3 1l-2 1q3 4 8 12l3 1l3 -2q0 -3 -1 -2l3 1q5 -9 16 -19q17 -26 40 -66q-1 -1 2 -2v-15zM124 291q-7 30 -14 25l-1 2l-2 -1 q-2 1 -4 3l1 1q-2 2 -8 13q-3 7 -12 9q-5 -3 -14 -12q0 -2 -6 -30l-2 1l-6 -9h1v-1l-2 -2q4 -32 15 -46q0 -12 -1 -13q8 -42 8 -44v-31l17 9l1 2l2 -2v2l4 16q-1 0 -1 2q0 37 5 54l1 -1v2q2 3 5 8l1 2v1q13 26 10 30q4 10 2 10zM77 511q9 -5 25 -19q3 -3 11 -9l45 -40 q-34 14 -74 33q-1 1 -33.5 -17t-38.5 -15z" />
<glyph unicode="&#xf5;" horiz-adv-x="163" d="M160 298q-1 -3 -5 -8v-2q0 5 -5 -6h1q-3 -1 -3.5 -18t-3.5 -22l1 -1q0 -3 -1.5 -8.5t-3.5 -7t-10 -29.5q-9 -33 -13 -41v-2h-3l1 -2l-2 1v-2h-2l-9 -5h2v-27v-1h-1q3 -14 -23 -44q-3 0 -6 -1l-2 2q0 -1 -1 -2l-2 2q-1 -1 -3 -1v2l-8 7v-1q0 29 -4 34q-9 4 -19 31.5 t-8 33.5l-2 3l1 5q0 22 -1 18q-1 2 -5.5 8.5t-4.5 9.5l-1 -1q-3 4 -8 13l2 1v0q-1 10 7 22l12 20v2l2 1v23q5 7 18 21l1 2q10 5 21 21v2h1l15 37l3 1l-2 1q3 4 8 12l3 1l3 -2q0 -3 -1 -2l3 1q5 -9 16 -19q17 -26 40 -66q-1 -1 2 -2v-15zM124 291q-7 30 -14 25l-1 2l-2 -1 q-2 1 -4 3l1 1q-2 2 -8 13q-3 7 -12 9q-5 -3 -14 -12q0 -2 -6 -30l-2 1l-6 -9h1v-1l-2 -2q4 -32 15 -46q0 -12 -1 -13q8 -42 8 -44v-31l17 9l1 2l2 -2v2l4 16q-1 0 -1 2q0 37 5 54l1 -1v2q2 3 5 8l1 2v1q13 26 10 30q4 10 2 10z" />
<glyph unicode="&#xf6;" horiz-adv-x="163" d="M160 298q-1 -3 -5 -8v-2q0 5 -5 -6h1q-3 -1 -3.5 -18t-3.5 -22l1 -1q0 -3 -1.5 -8.5t-3.5 -7t-10 -29.5q-9 -33 -13 -41v-2h-3l1 -2l-2 1v-2h-2l-9 -5h2v-27v-1h-1q3 -14 -23 -44q-3 0 -6 -1l-2 2q0 -1 -1 -2l-2 2q-1 -1 -3 -1v2l-8 7v-1q0 29 -4 34q-9 4 -19 31.5 t-8 33.5l-2 3l1 5q0 22 -1 18q-1 2 -5.5 8.5t-4.5 9.5l-1 -1q-3 4 -8 13l2 1v0q-1 10 7 22l12 20v2l2 1v23q5 7 18 21l1 2q10 5 21 21v2h1l15 37l3 1l-2 1q3 4 8 12l3 1l3 -2q0 -3 -1 -2l3 1q5 -9 16 -19q17 -26 40 -66q-1 -1 2 -2v-15zM124 291q-7 30 -14 25l-1 2l-2 -1 q-2 1 -4 3l1 1q-2 2 -8 13q-3 7 -12 9q-5 -3 -14 -12q0 -2 -6 -30l-2 1l-6 -9h1v-1l-2 -2q4 -32 15 -46q0 -12 -1 -13q8 -42 8 -44v-31l17 9l1 2l2 -2v2l4 16q-1 0 -1 2q0 37 5 54l1 -1v2q2 3 5 8l1 2v1q13 26 10 30q4 10 2 10zM37 474q0 34 22 34q21 0 21 -34 q0 -35 -21 -35q-22 0 -22 35zM105 485q0 34 21 34q22 0 22 -34q0 -35 -22 -35q-21 0 -21 35z" />
<glyph unicode="&#xf9;" horiz-adv-x="185" d="M120 400h-1q0 4 -6 20q-4 12 -5 16q-2 9 1 9t7 -2.5t6 -2.5q9 -1 28 3.5t27 4.5q5 0 2 -10q-4 -14 -19 -43q-9 -5 -12 -59q0 -14 -2 -20q-6 -7 -6 -51q0 -7 3 -22t3 -23q0 -7 -2.5 -20.5t-2.5 -20.5q0 -24 4 -62q0 -6 3.5 -18.5t3.5 -18.5q0 -8 -3 -15q-4 0 -6 3l-2 2 q-3 3 -5 3l-14 58q-8 34 -11 83l-1 2l-11 -43q-7 -12 -17 -36q1 -7 0 -20v-5q-9 -8 -24 -28l-2 -4q-1 -2 -3 -5q-18 1 -22 27q-2 8 -3 44v8q-7 18 -7 63q0 -7 3 23q2 13 2 56q0 8 1.5 24t1.5 24q0 27 -6 27q-2 1 -10 19t-8 21q41 -10 59 -11q-2 -7 -8 -12l-3 -2 q-5 -17 -5 -20q0 -9 2.5 -27.5t2.5 -27.5q0 -14 -6.5 -41t-6.5 -41q0 11 9 -75q1 -3 5 -5.5t5 -2.5q2 0 24 27q-1 -6 -1 13q0 8 13.5 54.5t18.5 56.5q2 1 5 4q-1 -13 -1 98zM64 554q9 -5 24 -19q3 -3 11 -9l46 -40q-35 14 -74 33q-17 1 -43 7z" />
<glyph unicode="&#xfa;" horiz-adv-x="185" d="M120 400h-1q0 4 -6 20q-4 12 -5 16q-2 9 1 9t7 -2.5t6 -2.5q9 -1 28 3.5t27 4.5q5 0 2 -10q-4 -14 -19 -43q-9 -5 -12 -59q0 -14 -2 -20q-6 -7 -6 -51q0 -7 3 -22t3 -23q0 -7 -2.5 -20.5t-2.5 -20.5q0 -24 4 -62q0 -6 3.5 -18.5t3.5 -18.5q0 -8 -3 -15q-4 0 -6 3l-2 2 q-3 3 -5 3l-14 58q-8 34 -11 83l-1 2l-11 -43q-7 -12 -17 -36q1 -7 0 -20v-5q-9 -8 -24 -28l-2 -4q-1 -2 -3 -5q-18 1 -22 27q-2 8 -3 44v8q-7 18 -7 63q0 -7 3 23q2 13 2 56q0 8 1.5 24t1.5 24q0 27 -6 27q-2 1 -10 19t-8 21q41 -10 59 -11q-2 -7 -8 -12l-3 -2 q-5 -17 -5 -20q0 -9 2.5 -27.5t2.5 -27.5q0 -14 -6.5 -41t-6.5 -41q0 11 9 -75q1 -3 5 -5.5t5 -2.5q2 0 24 27q-1 -6 -1 13q0 8 13.5 54.5t18.5 56.5q2 1 5 4q-1 -13 -1 98zM138 571l8.5 -10.5t7.5 -11.5l-101 -96q-2 -1 -2 -2q-4 0 25 53v0q-1 -1 -3 -5l23 18l9 26 q8 13 17 18q13 8 16 10z" />
<glyph unicode="&#xfb;" horiz-adv-x="185" d="M120 400h-1q0 4 -6 20q-4 12 -5 16q-2 9 1 9t7 -2.5t6 -2.5q9 -1 28 3.5t27 4.5q5 0 2 -10q-4 -14 -19 -43q-9 -5 -12 -59q0 -14 -2 -20q-6 -7 -6 -51q0 -7 3 -22t3 -23q0 -7 -2.5 -20.5t-2.5 -20.5q0 -24 4 -62q0 -6 3.5 -18.5t3.5 -18.5q0 -8 -3 -15q-4 0 -6 3l-2 2 q-3 3 -5 3l-14 58q-8 34 -11 83l-1 2l-11 -43q-7 -12 -17 -36q1 -7 0 -20v-5q-9 -8 -24 -28l-2 -4q-1 -2 -3 -5q-18 1 -22 27q-2 8 -3 44v8q-7 18 -7 63q0 -7 3 23q2 13 2 56q0 8 1.5 24t1.5 24q0 27 -6 27q-2 1 -10 19t-8 21q41 -10 59 -11q-2 -7 -8 -12l-3 -2 q-5 -17 -5 -20q0 -9 2.5 -27.5t2.5 -27.5q0 -14 -6.5 -41t-6.5 -41q0 11 9 -75q1 -3 5 -5.5t5 -2.5q2 0 24 27q-1 -6 -1 13q0 8 13.5 54.5t18.5 56.5q2 1 5 4q-1 -13 -1 98zM76 551q9 -5 24 -19q3 -3 11 -9l46 -40q-35 14 -74 33q-2 1 -34.5 -17t-37.5 -15z" />
<glyph unicode="&#xfc;" horiz-adv-x="185" d="M120 400h-1q0 4 -6 20q-4 12 -5 16q-2 9 1 9t7 -2.5t6 -2.5q9 -1 28 3.5t27 4.5q5 0 2 -10q-4 -14 -19 -43q-9 -5 -12 -59q0 -14 -2 -20q-6 -7 -6 -51q0 -7 3 -22t3 -23q0 -7 -2.5 -20.5t-2.5 -20.5q0 -24 4 -62q0 -6 3.5 -18.5t3.5 -18.5q0 -8 -3 -15q-4 0 -6 3l-2 2 q-3 3 -5 3l-14 58q-8 34 -11 83l-1 2l-11 -43q-7 -12 -17 -36q1 -7 0 -20v-5q-9 -8 -24 -28l-2 -4q-1 -2 -3 -5q-18 1 -22 27q-2 8 -3 44v8q-7 18 -7 63q0 -7 3 23q2 13 2 56q0 8 1.5 24t1.5 24q0 27 -6 27q-2 1 -10 19t-8 21q41 -10 59 -11q-2 -7 -8 -12l-3 -2 q-5 -17 -5 -20q0 -9 2.5 -27.5t2.5 -27.5q0 -14 -6.5 -41t-6.5 -41q0 11 9 -75q1 -3 5 -5.5t5 -2.5q2 0 24 27q-1 -6 -1 13q0 8 13.5 54.5t18.5 56.5q2 1 5 4q-1 -13 -1 98zM35 497q0 35 21 35q22 0 22 -35q0 -34 -22 -34q-21 0 -21 34zM102 508q0 35 22 35q21 0 21 -35 q0 -34 -21 -34q-22 0 -22 34z" />
<glyph unicode="&#x2c7;" horiz-adv-x="594" d="M528 781l-10 -60q-7 -36 -7 -60q0 -145 0 -144q-4 -21 -17 -22q-4 18 -6 103q-3 82 -8 101q-4 16 -16 20q-6 1 -28 1q-59 0 -67 -31h-1q-3 0 -4.5 8t-3.5 8t-10 -15t-11 -18q5 -9 5 -17q0 -3 -12 -18t-14 -20q2 -9 5 -17q-1 -10 -4.5 -33t-3.5 -36t7 -27v-10 q3 -47 -22 -81l-1 -10q4 -23 7 -69q0 -5 -1 -17v-16q0 -11 2 -32t2 -32q0 -15 6 -43t6 -43q0 -12 -2 -38.5t-2 -39.5q0 -34 12 -52q3 -5 -7 -181l-14 -31l11 -15l-13 -81l-10 -43l-20 -66l2 -31l4 -32l-24 38l-2 46l6 91l-8 71l2 53l16 32l-6 18l-14 122l14 50q4 13 4 30 q0 13 -3 40t-3 41q0 5 -3 15.5t-3 15.5q-8 89 -8 148q0 20 5 46.5t5 33.5v66l-6 -5v26q1 18 1 26v131q0 39 -24 39q-5 0 -39 -1q-2 -1 -8.5 -4t-10.5 -3q-5 0 -33 16.5t-31 21.5l-5 -6q1 -93 1 -225q-6 -7 -14 -22l-11 3q0 3 -8 133q-6 102 -6 133q0 29 10 44l26 -14 q21 0 63 -7t62 -7q9 0 27.5 8.5t27.5 8.5q4 0 16 -9t16 -9q3 0 7 3.5t6 3.5q12 0 35 -1t35 -1q5 0 13 -3t12 -3q12 0 37 12t37 12q11 0 32 -18z" />
<glyph unicode="&#x2010;" />
<glyph unicode="&#x2018;" horiz-adv-x="179" d="M147 488q-1 0 -11 -13t-13 -12q-29 20 -39.5 38t-21.5 26q-8 39 -18 82q6 2 15 7q-2 3 -3 14q0 8 -4 8q-5 0 -10 -6q-10 21 -10 30q0 5 7.5 18.5t7.5 18.5q0 9 -4 15q3 3 5 10q2 0 5.5 -3t5.5 -3q3 0 10 10.5t17 10.5q20 0 28 -2q15 -21 22 -62q1 -3 4.5 -10.5t3.5 -11.5 q0 -13 -21 -30q-2 3 -6 7q0 -2 -17 -20q-12 -14 -12 -35q0 -7 2 -16q5 -23 26 -48.5t29 -25.5q2 1 2 3z" />
<glyph unicode="&#x2019;" horiz-adv-x="179" d="M147 662q0 -9 -9 -30q-6 6 -11 6q-4 0 -4 -8q-1 -11 -3 -14q6 -1 15 -7q-8 -39 -18 -82q-11 -8 -21.5 -26t-39.5 -38q-3 -1 -13 12t-11 13q0 -2 2 -3q8 0 29 25.5t27 48.5q1 9 1 16q0 21 -12 35q-17 18 -17 20q-4 -4 -6 -7q-21 17 -21 30q0 4 3.5 11.5t4.5 10.5 q5 27 7 34q4 12 15 28q8 2 29 2q9 0 16 -10.5t10 -10.5q2 0 5.5 3t5.5 3q3 -7 5 -10q-4 -6 -4 -15q0 -5 7.5 -18.5t7.5 -18.5z" />
<glyph unicode="&#x201c;" horiz-adv-x="330" d="M285 488q-1 0 -11 -13t-12 -12q-30 20 -40 38t-22 26l-17 82q5 2 14 7q-2 3 -3 14q0 8 -4 8q-5 0 -10 -6q-10 21 -10 30q0 5 8 18.5t8 18.5q0 9 -5 15q3 3 5 10q2 0 5.5 -3t6.5 -3t10 10.5t16 10.5q20 0 28 -2q15 -21 22 -62q1 -3 4.5 -10.5t3.5 -11.5q0 -13 -21 -30 q-2 3 -5 7q-1 -2 -18 -20q-12 -14 -12 -35q0 -7 2 -16q5 -23 26 -48.5t29 -25.5q2 1 2 3zM160 489q-1 0 -11 -13t-13 -11q-29 19 -39.5 37t-21.5 26q-8 39 -18 82q6 2 15 7q-2 3 -3 14q0 8 -4 8q-5 0 -10 -6q-10 21 -10 30q0 5 8 18.5t8 19.5q0 8 -5 14q3 3 5 10q2 0 5.5 -3 t5.5 -3q3 0 10 10.5t17 10.5q20 0 28 -2q15 -21 22 -62q1 -3 4.5 -10.5t3.5 -11.5q0 -13 -21 -30q-2 3 -6 7q0 -2 -17 -20q-12 -14 -12 -34q0 -8 2 -17q5 -23 27 -50q20 -23 28 -23q2 0 2 2z" />
<glyph unicode="&#x201d;" horiz-adv-x="330" d="M285 663q0 -9 -9 -30q-6 6 -11 6q-3 0 -4 -8q-1 -11 -3 -14q6 -1 15 -7l-17 -82q-12 -8 -22.5 -26t-39.5 -37q-2 -2 -12 11t-11 13q-1 -2 1 -2q8 0 28 23q23 27 28 50q1 9 1 17q0 20 -12 34q-16 18 -17 20q-4 -4 -6 -7q-21 17 -21 30q0 4 4 11.5t4 10.5q5 27 7 34 q4 12 16 28q7 2 28 2q9 0 16 -10.5t10 -10.5q2 0 5.5 3t5.5 3q3 -7 5 -10q-4 -6 -4 -14q0 -6 7.5 -19.5t7.5 -18.5zM160 662q0 -9 -9 -30q-6 6 -11 6q-4 0 -4 -8q-1 -11 -3 -14q6 -1 15 -7l-17 -82q-12 -8 -22.5 -26t-39.5 -38q-3 -1 -13 12t-11 13q0 -2 2 -3q8 0 29 25.5 t27 48.5q1 9 1 16q0 21 -12 35q-17 18 -17 20q-4 -4 -6 -7q-21 17 -21 30q0 4 3.5 11.5t4.5 10.5q5 27 7 34q4 12 15 28q8 2 29 2q9 0 16 -10.5t10 -10.5q2 0 5.5 3t5.5 3q3 -7 5 -10q-4 -6 -4 -15q0 -5 7.5 -18.5t7.5 -18.5z" />
<glyph unicode="&#x2022;" horiz-adv-x="247" d="M179 251h-111l-34 162l90 100l89 -100z" />
<glyph unicode="&#xe000;" horiz-adv-x="440" d="M0 440h440v-440h-440v440z" />
</font>
</defs>
</svg>
